<svg xmlns="http://www.w3.org/2000/svg" xmlns:xlink="http://www.w3.org/1999/xlink" version="1.1" id="Layer_1" x="0px" y="0px" viewBox="0 0 258 256" style="enable-background:new 0 0 258 256;" xml:space="preserve" width="258"  height="256" >
<style type="text/css">
	.st0{fill:#2D317A;}
	.st1{fill:#C52328;}
</style>
<g>
	<path class="st0" d="M233.18,154.99H130.35c-0.07,0-0.14-0.01-0.21-0.03l-5.48-1.6c-0.19-0.05-0.37-0.04-0.54,0.04   c-0.73,0.37-2.98,1.42-5.31,1.36c-7.78-0.19-10.13-4.4-10.68-5.74c-0.11-0.26-0.35-0.42-0.63-0.44l-11.89-0.98l13.92-1.76   c0.33-0.04,0.64,0.12,0.78,0.42c0.5,1.13,1.98,3.87,4.83,4.72c4.16,1.24,7.38-0.41,8.32-0.98c0.2-0.12,0.41-0.13,0.63-0.06   l6.8,2.43c0,0-1.88-7.98-3.74-9.85c-2.88-2.9-16.12-6.39-20.42-7.04c-6.44-0.98-19.59-0.79-26.05,0   c-12.42,1.53-10.13,9.48-9.39,11.03c2.2,4.59,14.55,11.97,15.73,12.91c1.17,0.94,11.33,6.86,13.62,9.43   c4.13,4.63,7.67,20.34,7.73,20.6c0,0.01,0,0.01,0.01,0.02l5.74,20.27c0.08,0.28,0.32,0.5,0.61,0.54l36.53,5.78   c0.46,0.07,0.88-0.29,0.88-0.76l-0.64-49.25c-0.01-0.39,0.28-0.72,0.67-0.76l61.23-7.04c0.06-0.01,0.11-0.01,0.17,0l6.25,0.7   c0,0,0.52,0.75,0.92,1c0.57,0.35,1.58,0.57,1.58,0.57c-1.04,1.75-4.28,7.96-2.8,15.3c2.89,14.35-4.89,12.27-2.98,16.7   c3.83,8.85-8.64,28.51-24.66,41.67c0,0,4.9-1.57,11.85-8.78c11.6-12.05,21.59-33.5,23.26-37.3c1.93-4.42-2.14-8.29-0.44-11.85   c3.07-6.46,2.95-14.67,2.9-16.09c0,0,0.89-0.41,1.33-0.84C232.64,157.55,233.18,154.99,233.18,154.99"/>
	<path class="st1" d="M174.17,64.19c-5.61,4.98-20.27,15.46-24.24,15c-0.22-0.02-0.39-0.11-0.56-0.25c-0.82-0.73-1.98-2.74-3.34-5.6   C141.44,62.65,130.79,30.25,128,21.7c-0.21-0.66-1.14-0.64-1.35,0.01c-3.29,10.31-17.8,55.27-21.29,57.48   c-3.07,1.95-18.93-9.55-24.89-14.83c-0.8-0.71-2.03,0.09-1.72,1.11l17.3,57.22c0.27,1.04-0.97,1.8-1.77,1.09L66.77,99.4   c-0.7-0.58-1.75-0.09-1.75,0.82c0.01,5.45-0.14,18.95-1.9,21.09c-1.78,2.16-32.95-8.42-42.94-11.88c-0.97-0.33-1.8,0.75-1.22,1.6   c5.94,8.67,24.25,35.67,23.68,38.5c-0.47,2.35-16.2,4.52-22.87,5.33c-0.99,0.12-1.28,1.41-0.44,1.96l55.94,37.1   c0.54,0.35,0.66,1.08,0.26,1.59l-14.08,19.73c-0.61,0.77,0.03,1.88,1,1.75l47.2-6.58c0.64-0.09,1.06-0.72,0.9-1.34   c-1.35-5.22-6.9-26.44-10.13-35.55c-2.13-5.99-29.19-16.23-32.28-26.48c-1.36-4.51-1.49-11.55,8.7-13.53   c12.03-2.34,25.48-1.12,29.64-0.76c1.49,0.16,2.66,0.32,3.7,0.47c-0.46-1.05-0.96-2.43-1.5-4.74c-1.36-5.83-0.15-10.82,2.94-14.71   c3.45-4.35,9.22-6.79,16.89-6.79c6.79,0,12.73,2.47,15.73,7.95c2.81,5.13,3.31,10.6,1.32,16.89c-0.86,2.73-1.47,5.19-2.46,7.08   c-0.36,0.69,0.11,1.51,0.88,1.57l10.6,0.84c0.53,0.04,1.02-0.31,1.14-0.83l20.14-75.18C176.2,64.28,174.97,63.48,174.17,64.19"/>
	<path class="st0" d="M233.65,145.8c-0.46-0.68-2.82-1.64-2.82-1.64l-1.4-0.2c0.04-1.87,0.04-9.68-2.91-15.89   c-1.7-3.57,2.37-7.43,0.44-11.85c-1.66-3.79-11.65-25.25-23.26-37.3c-6.95-7.21-11.85-8.77-11.85-8.77   c16.02,13.16,28.49,32.82,24.66,41.66c-1.92,4.43,5.87,2.35,2.98,16.7c-1.28,6.36,0.98,11.87,2.29,14.36c0,0-2.6-0.79-3.39-0.49   c-0.52,0.2-1.43,1.71-1.43,1.71l-0.92,1.7l-7.98,1.17l-23.23-2.29l-0.89,2.29c0,0-18.72-2.23-19.24-2.29   c-9.03-1.08-16.35-1.79-25.42-2.35c-0.2-0.01,2.32-5.96,3.15-8.85c1.66-5.82,2.32-11.26-0.39-16.89   c-2.28-4.75-9.05-6.62-13.65-6.62c-6.66,0-11.67,1.88-14.5,5.44c-2.46,3.11-3.2,7.49-2.07,12.35c0.7,3,1.31,4.24,1.84,5.32   c0.12,0.25,0.23,0.51,0.35,0.75c2.8,0.6,8.69,2.24,14.07,6.15c3.55,2.58,5.17,12.39,5.17,12.39h101.34   C234.59,152.37,234.57,147.18,233.65,145.8"/>
</g>
</svg>