<svg xmlns="http://www.w3.org/2000/svg" xmlns:xlink="http://www.w3.org/1999/xlink" width="225" height="80" viewBox="0 0 225 80">
  <defs>
    <clipPath id="clip-path">
      <rect id="Rectangle_288" data-name="Rectangle 288" width="225" height="80" transform="translate(119 47)" fill="#ca0e22"/>
    </clipPath>
    <clipPath id="clip-path-2">
      <rect id="Rectangle_46" data-name="Rectangle 46" width="231.706" height="95.716" fill="#fdfdfd"/>
    </clipPath>
  </defs>
  <g id="Mask_Group_1" data-name="Mask Group 1" transform="translate(-119 -47)" clip-path="url(#clip-path)">
    <g id="Group_85" data-name="Group 85" transform="translate(112 35.142)">
      <g id="Group_14" data-name="Group 14" transform="translate(0 0)" clip-path="url(#clip-path-2)">
        <path id="Path_81" data-name="Path 81" d="M79.99,66.205A8.3,8.3,0,0,1,76.26,68.52a8.97,8.97,0,0,1-2.743.3c-1.586,0-2.957-1.285-2.957-3.687,0-1.972.857-3.9,3.943-5.272A45.03,45.03,0,0,0,79.732,57.2V54.975a4.181,4.181,0,0,0-.686-2.4,2.857,2.857,0,0,0-2.143-.643,4.473,4.473,0,0,0-2.486.771c-.6.428-.171,1.073-.171,2.1a2.247,2.247,0,0,1-2.572,2.486,1.394,1.394,0,0,1-1.457-1.457,4.551,4.551,0,0,1,1.972-3.514,11.291,11.291,0,0,1,6.944-2.4c2.4,0,3.171.514,3.943,1.2A4.026,4.026,0,0,1,84.1,54.333l.085,6.773v2.056c0,2.315.343,3,1.115,3a1.651,1.651,0,0,0,1.371-.686c.171-.257.257-.257.428-.171l.515.342c.171.086.257.257.086.686a4.308,4.308,0,0,1-3.944,2.486,3.538,3.538,0,0,1-3.6-2.615Zm-.257-7.415c-1.886,1.2-4.715,1.928-4.715,5.058,0,1.757.943,2.615,1.972,2.615,1.2-.086,2.743-1.286,2.743-2.058Z" transform="translate(0.9 0.64)" fill="#fdfdfd"/>
        <path id="Path_82" data-name="Path 82" d="M91.685,57.293c0-1.972-.342-2.658-1.629-3.343l-.772-.428c-.257-.086-.342-.172-.342-.343v-.256c0-.172.085-.257.342-.387l5.187-2.443a2.031,2.031,0,0,1,.686-.171c.257,0,.342.257.386.515l.386,3.086H96.1c1.457-2.4,3.257-3.858,5.143-3.858a2.094,2.094,0,0,1,2.229,2.143,2.488,2.488,0,0,1-2.314,2.314,3.316,3.316,0,0,1-1.457-.342,1.969,1.969,0,0,0-1.2-.343,2.237,2.237,0,0,0-1.8,1.243,4.89,4.89,0,0,0-.513,2.1v8.273c0,1.371.342,1.8,1.2,1.8h1.886c.256,0,.342.086.342.3v.986c0,.214-.086.3-.3.3-.3,0-2.187-.129-5.315-.129-3,0-4.672.129-5.014.129-.215,0-.3-.086-.3-.3v-.943c0-.257.085-.343.386-.343h1.5a1.01,1.01,0,0,0,1.114-1.157Z" transform="translate(1.136 0.636)" fill="#fdfdfd"/>
        <path id="Path_83" data-name="Path 83" d="M119.439,65a.347.347,0,0,1,0,.515,10.394,10.394,0,0,1-7.244,3.3c-2.915,0-5.229-.772-6.858-2.83a8.614,8.614,0,0,1-2.057-5.915,10.592,10.592,0,0,1,3.171-7.672,9.038,9.038,0,0,1,6.258-2.486c4.972,0,6.086,2.572,6.086,3.858a1.8,1.8,0,0,1-1.886,1.886,2.748,2.748,0,0,1-2.572-2.143,2.524,2.524,0,0,0-2.658-1.757c-1.714,0-3.858,1.929-3.858,4.972a11.365,11.365,0,0,0,1.672,6.944,4.966,4.966,0,0,0,4.415,2.314,6.981,6.981,0,0,0,4.629-1.629.276.276,0,0,1,.386.044Z" transform="translate(1.323 0.64)" fill="#fdfdfd"/>
        <path id="Path_84" data-name="Path 84" d="M135.165,59.078c0-2.229,0-4.629-1.114-5.744a3.114,3.114,0,0,0-2.4-1.028,4.655,4.655,0,0,0-3.172,1.543,3.728,3.728,0,0,0-.771,2.1v9.258c0,1.372.171,1.8.771,1.8h1.029c.257,0,.428.086.428.386v.772c0,.257-.086.429-.343.429-.342,0-2.228-.13-4.457-.13-2.658,0-4.286.13-4.629.13-.215,0-.343-.086-.343-.343v-.944c0-.214.171-.3.386-.3h1.072c.686,0,1.286-.171,1.415-.686a42.671,42.671,0,0,0,.214-5.315l-.085-15.3c0-2.4-.514-3.258-1.972-3.858l-.772-.257c-.257-.086-.343-.172-.343-.343v-.428c0-.171.086-.257.6-.515a44.645,44.645,0,0,0,5.572-2.485,3.653,3.653,0,0,1,1.2-.343c.342,0,.428.343.342,1.029-.085.771-.085,9.429-.085,11.53v2.657h.256a7.056,7.056,0,0,1,5.529-2.614,5.881,5.881,0,0,1,4.287,1.715c1.971,1.714,1.885,3.858,1.885,6.3v8.229c0,.6.773.686,1.457.686h.772c.343,0,.429.086.429.3v.944c0,.214-.086.343-.343.343s-1.629-.13-4.244-.13c-2.572,0-4.114.13-4.543.13-.257,0-.342-.086-.342-.3V67.265c0-.171.085-.257.3-.257h.729c.513,0,1.114-.171,1.2-.857.085-.6.085-2.829.085-4.2Z" transform="translate(1.538 0.48)" fill="#fdfdfd"/>
        <path id="Path_85" data-name="Path 85" d="M147.421,58.79c0,4.372,3.13,6.944,5.572,6.944a5.818,5.818,0,0,0,5.187-2.485c.171-.3.342-.3.514-.215l.643.386c.215.129.3.3,0,.857a8.491,8.491,0,0,1-7.8,4.543c-2.743,0-4.672-.6-6.171-2.314a9.705,9.705,0,0,1-2.4-7.072,8.859,8.859,0,0,1,2.1-6.343c1.8-2.315,3.729-3.172,7.457-3.172,4.887,0,6.473,5.1,6.473,6.858,0,.643-.428.686-1.2.686H147.421Zm5.315-2.871c.9,0,1.414-.257,1.414-.6,0-1.285-.427-3.814-2.657-3.814-2.1,0-3.386,1.544-3.943,4.415Z" transform="translate(1.831 0.64)" fill="#fdfdfd"/>
        <path id="Path_86" data-name="Path 86" d="M163.142,57.293c0-1.972-.343-2.658-1.629-3.343l-.772-.428c-.256-.086-.342-.172-.342-.343v-.256c0-.172.086-.257.342-.387l5.187-2.443a2.031,2.031,0,0,1,.686-.171c.257,0,.343.257.386.515l.386,3.086h.171c1.457-2.4,3.257-3.858,5.143-3.858a2.094,2.094,0,0,1,2.229,2.143,2.489,2.489,0,0,1-2.315,2.314,3.319,3.319,0,0,1-1.456-.342,1.969,1.969,0,0,0-1.2-.343,2.234,2.234,0,0,0-1.8,1.243,4.877,4.877,0,0,0-.515,2.1v8.273c0,1.371.342,1.8,1.2,1.8h1.886c.256,0,.342.086.342.3v.986c0,.214-.086.3-.3.3-.3,0-2.186-.129-5.314-.129-3,0-4.672.129-5.015.129-.215,0-.3-.086-.3-.3v-.943c0-.257.085-.343.385-.343h1.5a1.01,1.01,0,0,0,1.114-1.157Z" transform="translate(2.052 0.636)" fill="#fdfdfd"/>
        <path id="Path_87" data-name="Path 87" d="M175.268,77.645a2.105,2.105,0,0,1,2.057-2.143,4.4,4.4,0,0,1,1.887.515,1.04,1.04,0,0,0,1.114-.086,39.89,39.89,0,0,0,3.257-6.858c-.257-1.286-5.229-14.659-5.529-15.388-.472-1.114-.9-1.8-1.758-1.8h-.857c-.257,0-.342-.129-.342-.343V50.6c0-.171.085-.3.342-.3.343,0,1.371.129,4.543.129,2.486,0,3.772-.129,4.286-.129.257,0,.342.086.342.343v.942a.27.27,0,0,1-.3.3h-.643c-.429,0-.772.257-.643.9.129.858,2.7,9.6,3.129,10.544h.171c.772-1.63,3.773-8.916,3.986-9.815.257-1.114-.129-1.629-.9-1.629h-.686c-.256,0-.342-.129-.342-.3v-.942c0-.215.086-.343.342-.343.514,0,1.372.129,3.687.129,1.456,0,2.486-.129,2.872-.129.214,0,.3.129.3.343v.9c0,.257-.085.343-.257.343h-.513a1.924,1.924,0,0,0-1.544.728c-.857,1.115-3.772,7.544-6.858,14.487-2.143,4.63-3.943,8.659-4.715,10.03-.686,1.114-1.543,2.83-3.858,2.83a2.327,2.327,0,0,1-2.572-2.315" transform="translate(2.243 0.645)" fill="#fdfdfd"/>
        <path id="Path_88" data-name="Path 88" d="M207.1,46.343a.257.257,0,0,0-.247.124.887.887,0,0,0-.09.327h-.27V43.639h.27c.029.27.143.405.337.405h6.641v.27a.342.342,0,0,0-.36.384V48.44a.717.717,0,0,0,.045.27q.046.112.225.112h.112v.27a15.262,15.262,0,0,1-7.249,1.624,10.614,10.614,0,0,1-2.735-.349,6.859,6.859,0,0,1-2.332-1.092,5.625,5.625,0,0,1-1.635-1.879,6.046,6.046,0,0,1,0-5.333,5.768,5.768,0,0,1,1.635-1.891,7.094,7.094,0,0,1,2.332-1.125,10.041,10.041,0,0,1,2.735-.372q.562,0,.992.023a7.373,7.373,0,0,1,.833.09c.27.045.548.1.833.168s.623.154,1.014.259a7.4,7.4,0,0,1,1.035.372,2.12,2.12,0,0,0,.608.215.392.392,0,0,0,.315-.18l.27.089-1.463,2.973-.27-.157a.779.779,0,0,0,.046-.248q0-.156-.383-.348a5.275,5.275,0,0,0-.968-.348,12.19,12.19,0,0,0-1.317-.27,9.409,9.409,0,0,0-1.429-.112,5.471,5.471,0,0,0-1.544.214,3.83,3.83,0,0,0-1.3.663,3.29,3.29,0,0,0-.913,1.114,3.465,3.465,0,0,0-.337,1.586,2.94,2.94,0,0,0,.405,1.564,3.566,3.566,0,0,0,1.024,1.091,4.41,4.41,0,0,0,1.385.631,5.937,5.937,0,0,0,1.509.2,11.611,11.611,0,0,0,1.7-.112,11.143,11.143,0,0,0,1.452-.317V46.343Z" transform="translate(2.552 0.496)" fill="#fdfdfd"/>
        <path id="Path_89" data-name="Path 89" d="M216.239,39.217a1,1,0,0,0-.529-.147V38.8h8.574a7.4,7.4,0,0,1,1.688.18,4.1,4.1,0,0,1,1.328.552,2.588,2.588,0,0,1,.878.968,3.031,3.031,0,0,1,.315,1.43,2.235,2.235,0,0,1-.607,1.633,2.992,2.992,0,0,1-1.551.821v.046a4.579,4.579,0,0,1,1.876.968,2.434,2.434,0,0,1,.73,1.914,3.232,3.232,0,0,1-.259,1.283,2.741,2.741,0,0,1-.81,1.058,4.192,4.192,0,0,1-1.417.721,6.952,6.952,0,0,1-2.059.27H215.71v-.27a1,1,0,0,0,.529-.147.349.349,0,0,0,.1-.258V39.476a.35.35,0,0,0-.1-.258m6.543,4.041q.72,0,1.193-.034a2.438,2.438,0,0,0,.743-.146.749.749,0,0,0,.383-.316,1.36,1.36,0,0,0,0-1.083.749.749,0,0,0-.383-.316,2.437,2.437,0,0,0-.743-.146q-.472-.033-1.193-.034h-3.063v2.075Zm.761,5a3.47,3.47,0,0,0,1.709-.3,1.357,1.357,0,0,0,0-2.1,3.47,3.47,0,0,0-1.709-.3h-3.823v2.706Z" transform="translate(2.763 0.497)" fill="#fdfdfd"/>
        <path id="Path_90" data-name="Path 90" d="M36.135,5.054A59.589,59.589,0,0,1,51.026,18.827a45.07,45.07,0,0,1,8.4,16.07A53.2,53.2,0,0,1,60,59.691c-2.278,11.221-7.747,21.588-14.236,30.916-.291.417,1.571,3.86,2.309,4.736C59.039,79.579,66.711,60.37,62.192,41a69.3,69.3,0,0,0-19.08-33.22A53.273,53.273,0,0,0,34.033.426c.128,1.182,1.372,4.179,2.1,4.628" transform="translate(0.436 0.006)" fill="#fdfdfd"/>
        <path id="Path_91" data-name="Path 91" d="M48.094,95.716l-.188-.224c-.569-.675-2.765-4.374-2.322-5.008,7.545-10.845,12.19-20.931,14.2-30.833a53.142,53.142,0,0,0-.574-24.688,44.771,44.771,0,0,0-8.356-15.991A58.644,58.644,0,0,0,36.022,5.249c-.815-.5-2.076-3.578-2.207-4.795L33.765,0l.39.24a52.711,52.711,0,0,1,9.117,7.387A69.4,69.4,0,0,1,62.414,40.958c4.935,21.151-4.973,41.321-14.153,54.517ZM34.349.89c.322,1.337,1.346,3.633,1.907,3.977A59.093,59.093,0,0,1,51.206,18.692a45.213,45.213,0,0,1,8.437,16.149,53.6,53.6,0,0,1,.581,24.9c-2.023,9.963-6.692,20.1-14.273,31a15.069,15.069,0,0,0,2.115,4.229c9.08-13.125,18.779-33.053,13.911-53.91A68.934,68.934,0,0,0,42.959,7.949,53.658,53.658,0,0,0,34.349.89" transform="translate(0.433 0)" fill="#fdfdfd"/>
        <path id="Path_92" data-name="Path 92" d="M9.361,56.148A162.5,162.5,0,0,1,26.3,47.6c6.417-2.892,12.961-5.5,19.585-7.882q6.189-2.223,12.486-4.137c1.912-.586,4.072-1.227,5.847-1.71-1.744.474-.116.035.137-.028q.849-.216,1.7-.425c1.409-.348,2.822-.678,4.237-1,42.117-9.638,88.177-7.747,129.1,6.64a10.306,10.306,0,0,1,5.907-3.084,218.339,218.339,0,0,0-75.381-11.951A261.529,261.529,0,0,0,66.77,33.119a310.35,310.35,0,0,0-47.114,16.09A167.709,167.709,0,0,0,1.743,58.183l-.016.01a14.447,14.447,0,0,0,7.634-2.046" transform="translate(0.022 0.308)" fill="#fdfdfd"/>
        <path id="Path_93" data-name="Path 93" d="M0,58.764l1.525-.954a170.041,170.041,0,0,1,17.971-9A310.5,310.5,0,0,1,66.677,32.691a263.206,263.206,0,0,1,63.261-9.108c1.032-.013,2.061-.019,3.093-.019a217.859,217.859,0,0,1,72.442,12l1.7.6-1.776.27a9.862,9.862,0,0,0-5.645,2.946l-.2.215-.278-.1A227.536,227.536,0,0,0,123.6,26.9a238.8,238.8,0,0,0-53.186,5.962c-1.242.285-2.715.625-4.228,1l-.056.014q-.823.2-1.644.41c-.086.021-.336.088-.554.146l-.269.072c-1.823.508-3.8,1.1-5.139,1.514-4.426,1.356-8.5,2.707-12.466,4.131-6.831,2.453-13.41,5.1-19.552,7.869a163.119,163.119,0,0,0-16.9,8.519,14.367,14.367,0,0,1-7.222,2.079c-.216.008-.419.016-.613.028ZM32.845,44.3Q26.1,46.854,19.86,49.625A180.647,180.647,0,0,0,3.582,57.648,14.173,14.173,0,0,0,9.168,55.76,164.129,164.129,0,0,1,26.142,47.2q3.274-1.474,6.7-2.9M123.6,26A228.46,228.46,0,0,1,199.3,38.549a10.744,10.744,0,0,1,4.415-2.652,217.365,217.365,0,0,0-70.679-11.436c-1.028,0-2.053.006-3.082.019a242.741,242.741,0,0,0-37.636,3.553A241.718,241.718,0,0,1,123.6,26" transform="translate(0 0.302)" fill="#fdfdfd"/>
      </g>
    </g>
  </g>
</svg>