<?xml version="1.0" encoding="UTF-8"?>
<svg version="1.1" xmlns="http://www.w3.org/2000/svg" width="681" height="582">
<path d="M0 0 C224.73 0 449.46 0 681 0 C681 192.06 681 384.12 681 582 C456.27 582 231.54 582 0 582 C0 389.94 0 197.88 0 0 Z " fill="#FDFDFD" transform="translate(0,0)"/>
<path d="M0 0 C0.99 0 1.98 0 3 0 C3.82491326 3.43463886 4.6325421 6.87313443 5.4375 10.3125 C5.78264648 11.74819336 5.78264648 11.74819336 6.13476562 13.21289062 C9.20052857 26.40900067 9.20052857 26.40900067 9 33 C8.01 33.99 8.01 33.99 7 35 C6.69324768 37.89967757 6.48826629 40.71783178 6.375 43.625 C6.31699219 44.82769531 6.31699219 44.82769531 6.2578125 46.0546875 C6.16346069 48.03607556 6.08063785 50.01800645 6 52 C7.0209375 52.01417969 8.041875 52.02835938 9.09375 52.04296875 C44.14037529 52.99904692 78.49472977 66.38613457 106 88 C106.88816406 88.66773437 107.77632812 89.33546875 108.69140625 90.0234375 C121.06414611 99.64872842 132.7930307 111.29750337 142 124 C141.67 124.66 141.34 125.32 141 126 C140.36578125 125.37996094 139.7315625 124.75992188 139.078125 124.12109375 C124.34774395 110.14350842 107.97442521 98.43315673 90 89 C89.16887695 88.56316895 88.33775391 88.12633789 87.48144531 87.67626953 C74.43210498 80.92327314 61.16183821 75.88993544 47 72 C45.83887695 71.67926514 45.83887695 71.67926514 44.65429688 71.35205078 C31.7529483 67.89532462 19.50701062 67.17452266 6 66 C6 144.87 6 223.74 6 305 C3.03 305 0.06 305 -3 305 C-3 226.13 -3 147.26 -3 66 C-17.74171289 66.56090515 -17.74171289 66.56090515 -32.1875 68.5625 C-33.46850586 68.81749268 -33.46850586 68.81749268 -34.77539062 69.07763672 C-74.65638786 77.55054895 -110.4915408 99.20260371 -139 128 C-139.66 127.67 -140.32 127.34 -141 127 C-108.96600386 85.60650586 -67.91490272 59.36565068 -15.5859375 52.375 C-11.3557007 51.9326223 -7.24276084 51.93370686 -3 52 C-3.11361602 49.20743781 -3.2403589 46.41655882 -3.375 43.625 C-3.42140625 42.43390625 -3.42140625 42.43390625 -3.46875 41.21875 C-3.51816421 36.63332625 -3.51816421 36.63332625 -6 33 C-6.23245757 25.359554 -4.21088616 17.68919034 -2.4375 10.3125 C-2.20353516 9.31283203 -1.96957031 8.31316406 -1.72851562 7.28320312 C-1.15894867 4.85382572 -0.58272348 2.42624867 0 0 Z " fill="#992637" transform="translate(323,0)"/>
<path d="M0 0 C16.83 0 33.66 0 51 0 C51 2.31 51 4.62 51 7 C43.08 7.495 43.08 7.495 35 8 C34.34 9.98 33.68 11.96 33 14 C38.94 14 44.88 14 51 14 C51 17.3 51 20.6 51 24 C49.85660156 24.04898438 48.71320313 24.09796875 47.53515625 24.1484375 C46.04424527 24.22345189 44.55336108 24.29900028 43.0625 24.375 C41.93038086 24.42140625 41.93038086 24.42140625 40.77539062 24.46875 C38.84492605 24.5726315 36.92057919 24.77895614 35 25 C34.67 25.66 34.34 26.32 34 27 C34.64066406 27.02578125 35.28132813 27.0515625 35.94140625 27.078125 C42.0589484 27.4792753 45.9125022 28.57146888 51 32 C51 32.66 51 33.32 51 34 C49.02 33.505 49.02 33.505 47 33 C46.01 34.32 45.02 35.64 44 37 C44 34 44 34 45 31 C43.68 30.67 42.36 30.34 41 30 C40.67 30.66 40.34 31.32 40 32 C40 31.01 40 30.02 40 29 C38.35 29 36.7 29 35 29 C35 30.98 35 32.96 35 35 C34.67 35 34.34 35 34 35 C34 37.97 34 40.94 34 44 C36.78256257 44.46376043 38.31366829 44.68544299 41 44 C43.34429598 42.0807918 45.29578921 40.01891044 47.30078125 37.75 C47.86152344 37.1725 48.42226563 36.595 49 36 C49.66 36 50.32 36 51 36 C51 36.66 51 37.32 51 38 C49.04072937 39.7143618 47.04119788 41.38405168 45 43 C46.98 42.67 48.96 42.34 51 42 C51 51.9 51 61.8 51 72 C46.38 72.33 41.76 72.66 37 73 C33.99823101 76.75221123 32.16855536 79.33129274 30.203125 83.51953125 C29.76645508 84.44096924 29.32978516 85.36240723 28.87988281 86.31176758 C28.34202148 87.46700928 27.80416016 88.62225098 27.25 89.8125 C25.5175 93.504375 23.785 97.19625 22 101 C31.57 101 41.14 101 51 101 C51 107.6 51 114.2 51 121 C38.13 121.33 25.26 121.66 12 122 C-1.89714231 150.35024555 -1.89714231 150.35024555 -15.32983398 178.92211914 C-19.38486844 187.71900667 -23.54327024 196.46244084 -27.75 205.1875 C-28.05926422 205.83076233 -28.36852844 206.47402466 -28.68716431 207.13677979 C-29.55466856 208.93999902 -30.42568258 210.7415285 -31.296875 212.54296875 C-31.79541992 213.57446045 -32.29396484 214.60595215 -32.80761719 215.66870117 C-34 218 -34 218 -35 219 C-36.41570123 219.08651611 -37.835595 219.10704904 -39.25390625 219.09765625 C-40.10791016 219.09443359 -40.96191406 219.09121094 -41.84179688 219.08789062 C-42.73962891 219.07951172 -43.63746094 219.07113281 -44.5625 219.0625 C-45.46419922 219.05798828 -46.36589844 219.05347656 -47.29492188 219.04882812 C-49.53001314 219.03700225 -51.76497437 219.0205222 -54 219 C-52.73516196 214.99449544 -51.26513075 211.2629958 -49.41796875 207.4921875 C-48.90540527 206.43870117 -48.3928418 205.38521484 -47.86474609 204.29980469 C-47.31125488 203.16961914 -46.75776367 202.03943359 -46.1875 200.875 C-44.99308778 198.42072375 -43.80245524 195.96463066 -42.61328125 193.5078125 C-42.30938477 192.8802002 -42.00548828 192.25258789 -41.69238281 191.60595703 C-38.67468252 185.356729 -35.77267516 179.05564436 -32.875 172.75 C-27.18548927 160.39759875 -21.23951411 148.1785082 -15.25866699 135.96508789 C-9.57047011 124.3437989 -4.00187731 112.6818985 1.40332031 100.92602539 C5.8020371 91.37154053 10.35254705 81.89526818 14.95263672 72.43652344 C15.46842285 71.37336914 15.98420898 70.31021484 16.515625 69.21484375 C16.97227539 68.27761475 17.42892578 67.34038574 17.89941406 66.37475586 C19.08366841 63.93565862 19.08366841 63.93565862 20 61 C20.66 61 21.32 61 22 61 C22.2165625 59.824375 22.2165625 59.824375 22.4375 58.625 C23 56 23 56 24 54 C23.34 53.67 22.68 53.34 22 53 C22.66 52.67 23.32 52.34 24 52 C24.16681109 49.08347826 24.16681109 49.08347826 24 46 C23.34 45.34 22.68 44.68 22 44 C22.66 44 23.32 44 24 44 C23.67 42.35 23.34 40.7 23 39 C23.66 39 24.32 39 25 39 C25 37.02 25 35.04 25 33 C24.34 32.67 23.68 32.34 23 32 C23 29.03 23 26.06 23 23 C21.80761719 22.86722656 20.61523438 22.73445313 19.38671875 22.59765625 C17.82029322 22.41944017 16.25388802 22.24104544 14.6875 22.0625 C13.90181641 21.97548828 13.11613281 21.88847656 12.30664062 21.79882812 C11.54931641 21.71181641 10.79199219 21.62480469 10.01171875 21.53515625 C9.31522217 21.456604 8.61872559 21.37805176 7.90112305 21.29711914 C6 21 6 21 3 20 C2.49550598 17.41747107 1.99625699 14.83411297 1.5 12.25 C1.35691406 11.52039063 1.21382813 10.79078125 1.06640625 10.0390625 C0.41111121 6.60656468 0 3.50830509 0 0 Z " fill="#971F31" transform="translate(264,86)"/>
<path d="M0 0 C16.5 0 33 0 50 0 C49 14 49 14 47 20 C44.25071558 20.50423557 41.50068857 21.00353426 38.75 21.5 C37.97269531 21.64308594 37.19539063 21.78617188 36.39453125 21.93359375 C35.64042969 22.06894531 34.88632812 22.20429687 34.109375 22.34375 C33.41811523 22.46943359 32.72685547 22.59511719 32.01464844 22.72460938 C30 23 30 23 26 23 C25.92534606 27.14425088 25.87116279 31.28813624 25.83520508 35.43286133 C25.82020123 36.84015734 25.79979137 38.24740724 25.77368164 39.65454102 C25.73692335 41.68777907 25.72019016 43.72039432 25.70703125 45.75390625 C25.6913208 46.97408447 25.67561035 48.1942627 25.65942383 49.45141602 C26.05728093 53.59683032 27.18986188 56.27742067 29 60 C30.485 59.505 30.485 59.505 32 59 C31.77425293 59.68634521 31.54850586 60.37269043 31.31591797 61.07983398 C30.88370622 65.07495355 32.14597509 67.1467238 33.9453125 70.72265625 C34.26618332 71.37122086 34.58705414 72.01978546 34.91764832 72.68800354 C35.61140986 74.08669241 36.31142788 75.48229184 37.01699829 76.87506104 C38.52499303 79.85217417 40.00293834 82.84385492 41.48243713 85.83520508 C42.23879147 87.36409999 42.99664485 88.8922542 43.75596619 90.41967773 C47.07061143 97.09777579 50.21209584 103.84456846 53.3125 110.625 C58.54070105 122.00085579 63.99398136 133.25673318 69.5 144.5 C75.62676347 157.01143251 81.65338334 169.55399495 87.47143555 182.21240234 C90.08747348 187.89936754 92.73648692 193.56723824 95.4609375 199.203125 C96.02304932 200.36602051 96.58516113 201.52891602 97.16430664 202.72705078 C98.23804878 204.94069959 99.31519247 207.15270271 100.39624023 209.36279297 C100.87005127 210.33877441 101.3438623 211.31475586 101.83203125 212.3203125 C102.25202393 213.17898926 102.6720166 214.03766602 103.10473633 214.92236328 C104 217 104 217 104 219 C97.73 219 91.46 219 85 219 C79.3716292 207.78141685 73.80560025 196.53539121 68.3125 185.25 C67.9245929 184.45373199 67.53668579 183.65746399 67.13702393 182.83706665 C61.42945574 171.11230442 55.82964894 159.34484991 50.41137695 147.48339844 C46.46494285 138.87225615 42.24575198 130.49150396 38 122 C18.695 121.505 18.695 121.505 -1 121 C-1 114.4 -1 107.8 -1 101 C8.57 101 18.14 101 28 101 C26.1025 96.936875 24.205 92.87375 22.25 88.6875 C21.36489746 86.77070435 21.36489746 86.77070435 20.46191406 84.81518555 C19.98463867 83.8075415 19.50736328 82.79989746 19.015625 81.76171875 C18.53383789 80.73006592 18.05205078 79.69841309 17.55566406 78.63549805 C15.89604187 75.82388135 14.8743548 74.52232718 12 73 C8.73124959 72.42385742 8.73124959 72.42385742 5.25 72.3125 C4.07953125 72.24675781 2.9090625 72.18101562 1.703125 72.11328125 C0.81109375 72.07589844 -0.0809375 72.03851563 -1 72 C-1 61.66666667 -1 51.33333333 -1 41 C-0.0925 41.309375 0.815 41.61875 1.75 41.9375 C6.85394162 43.82799423 6.85394162 43.82799423 12 43 C15.65544976 39.34455024 15.92966175 34.09024286 16.25 29.125 C16.33186916 25.89955818 16.33186916 25.89955818 14 24 C11.63490639 23.69940057 9.25558119 23.50484988 6.875 23.375 C5.59367187 23.30023438 4.31234375 23.22546875 2.9921875 23.1484375 C1.51105469 23.07496094 1.51105469 23.07496094 0 23 C0 20.36 0 17.72 0 15 C5.94 15 11.88 15 18 15 C16.67082039 9.52174919 16.67082039 9.52174919 15 8 C12.47403741 7.76346477 9.96892793 7.57826308 7.4375 7.4375 C6.72658203 7.39431641 6.01566406 7.35113281 5.28320312 7.30664062 C3.52238088 7.20028223 1.7612168 7.09961154 0 7 C0 4.69 0 2.38 0 0 Z " fill="#961F30" transform="translate(335,86)"/>
<path d="M0 0 C0.88115479 0.01023193 1.76230957 0.02046387 2.67016602 0.03100586 C10.29768376 0.28015121 16.28965033 1.60758308 21.75390625 7.2421875 C25.88882617 12.54336688 27.36814679 18.18268684 27.41552734 24.86816406 C27.42828705 26.09674133 27.44104675 27.3253186 27.45419312 28.59112549 C27.45641876 29.90683533 27.45864441 31.22254517 27.4609375 32.578125 C27.46737481 33.95807022 27.47410385 35.3380141 27.48110962 36.71795654 C27.49305482 39.60611123 27.49679345 42.49414659 27.49560547 45.38232422 C27.49540276 49.05837618 27.52266641 52.7336509 27.55714989 56.4095192 C27.57954285 59.2596783 27.58343921 62.10965426 27.58238602 64.95989227 C27.5858518 66.96601608 27.60743952 68.97208272 27.62948608 70.97808838 C27.58511345 79.92857912 26.49326244 87.25860911 20.875 94.4375 C12.56472412 100.85907682 4.82152841 102.26849734 -5.47265625 101.32421875 C-11.77334894 100.36012512 -16.45393424 98.22861328 -20.875 93.5625 C-24.43323007 88.10654723 -25.99597443 82.97968358 -26.03613281 76.47387695 C-26.04574036 75.21859695 -26.0553479 73.96331696 -26.06524658 72.66999817 C-26.07009609 71.29692772 -26.07437455 69.92385514 -26.078125 68.55078125 C-26.08388067 67.13933817 -26.08963835 65.72789509 -26.09539795 64.31645203 C-26.10590226 61.35492591 -26.11174794 58.39342688 -26.11523438 55.43188477 C-26.12070311 51.65369957 -26.1446983 47.87587767 -26.17320633 44.09780598 C-26.19191999 41.17997731 -26.19704303 38.2622344 -26.19857025 35.34435081 C-26.20158014 33.95260836 -26.20955193 32.56086681 -26.22275543 31.16918373 C-26.30439682 21.8985171 -25.96511374 15.15352613 -20.6875 7.3125 C-14.55826878 1.31947392 -8.41170577 -0.14642273 0 0 Z " fill="#070707" transform="translate(484.875,342.4375)"/>
<path d="M0 0 C6.27 0 12.54 0 19 0 C23.50191775 9.0038355 23.50191775 9.0038355 24.93530273 12.6015625 C25.25921494 13.41020752 25.58312714 14.21885254 25.91685486 15.05200195 C26.25237869 15.90109131 26.58790253 16.75018066 26.93359375 17.625 C27.29340836 18.53016357 27.65322296 19.43532715 28.02394104 20.36791992 C28.78123612 22.27661169 29.53665357 24.1860494 30.2902832 26.09619141 C31.42431801 28.96663406 32.56822775 31.83300067 33.71289062 34.69921875 C37.93873989 45.34624441 41.80144025 55.99860941 45 67 C44.96970703 66.32050293 44.93941406 65.64100586 44.90820312 64.94091797 C43.97584638 43.28513965 43.89552703 21.67233825 44 0 C50.27 0 56.54 0 63 0 C63 32.67 63 65.34 63 99 C56.4 99 49.8 99 43 99 C40.38189353 92.5643495 37.76772113 86.12711946 35.15698242 79.68847656 C34.27065889 77.50413247 33.38331276 75.32020298 32.49487305 73.13671875 C19.41889567 40.99498033 19.41889567 40.99498033 17 30 C16.97256207 31.9999203 16.95340945 33.99995477 16.9375 36 C16.92589844 37.11375 16.91429687 38.2275 16.90234375 39.375 C16.931385 42.99641098 16.931385 42.99641098 17.5 46.53515625 C18.1671023 51.71068492 18.12491208 56.85150521 18.09765625 62.0625 C18.0962413 63.09439453 18.09482635 64.12628906 18.09336853 65.18945312 C18.08780642 68.45966589 18.07526102 71.7298082 18.0625 75 C18.0574801 77.22786359 18.05291805 79.45572826 18.04882812 81.68359375 C18.03784941 87.12242266 18.02061113 92.56119941 18 98 C12.06 98 6.12 98 0 98 C0 65.66 0 33.32 0 0 Z " fill="#090909" transform="translate(282,343)"/>
<path d="M0 0 C0.85142578 -0.02449219 1.70285156 -0.04898437 2.58007812 -0.07421875 C10.10821925 -0.10862 15.53541644 2.21695063 21.9375 6 C28.07218774 12.47550373 29.63278372 18.79519726 29.5 27.5 C29.396875 30.09875 29.29375 32.6975 29.1875 35.375 C23.2475 35.375 17.3075 35.375 11.1875 35.375 C10.375 27.5625 10.375 27.5625 10.14135742 25.11401367 C9.81209233 22.24562891 9.48787692 19.86132454 7.95703125 17.3828125 C5.46355081 15.96268457 3.54103322 16.01263988 0.6875 16.0625 C-0.2715625 16.06636719 -1.230625 16.07023437 -2.21875 16.07421875 C-5.0473262 16.20282252 -5.0473262 16.20282252 -7.8125 18.375 C-8.33019361 20.86369088 -8.33019361 20.86369088 -8.25 23.6875 C-8.26933594 24.63238281 -8.28867188 25.57726562 -8.30859375 26.55078125 C-7.51270142 31.08172734 -5.352024 33.25216281 -1.67651367 35.93286133 C0.96189892 37.70444432 3.63147916 39.41864195 6.3125 41.125 C28.9267157 55.92129031 28.9267157 55.92129031 32.1875 67.375 C33.55131275 77.24114089 31.50458699 85.72366661 26.5 94.25 C18.21757037 101.86088128 8.66768553 103.82670291 -2.30859375 103.6171875 C-10.31714477 103.06364217 -16.25184424 100.99483609 -22.12109375 95.41015625 C-26.55119582 90.07971011 -28.96252319 83.17806053 -28.91015625 76.265625 C-28.90765869 75.58532227 -28.90516113 74.90501953 -28.90258789 74.20410156 C-28.89348389 73.35299805 -28.88437988 72.50189453 -28.875 71.625 C-28.854375 68.9025 -28.83375 66.18 -28.8125 63.375 C-22.5425 63.375 -16.2725 63.375 -9.8125 63.375 C-9.5 71 -9.5 71 -9.42456055 73.36572266 C-9.18271729 78.00134592 -8.34838913 81.36335591 -5.8125 85.375 C-2.10207469 87.84861688 0.88612675 87.92107278 5.1875 87.375 C8.02874653 86.13967542 9.60847859 85.1194561 11.5 82.6875 C12.54545094 79.17098319 12.81742746 75.96771465 12.1875 72.375 C8.32228104 65.48803147 2.78422382 61.97726906 -3.75 57.75 C-20.1691993 46.95559571 -20.1691993 46.95559571 -24.125 40.75 C-24.61613281 39.99460937 -25.10726562 39.23921875 -25.61328125 38.4609375 C-29.45524246 31.77817762 -28.89498258 21.11861794 -27.19921875 13.6875 C-24.50919699 7.62013814 -19.1284983 3.80523856 -13.16796875 1.234375 C-8.73249823 0.09839885 -4.56120069 0.00681285 0 0 Z " fill="#080808" transform="translate(168.8125,340.625)"/>
<path d="M0 0 C1.26360352 -0.0299707 1.26360352 -0.0299707 2.55273438 -0.06054688 C10.06125603 -0.05476664 16.05233299 1.96247379 21.875 6.75 C29.37206176 15.96067588 29.17070181 23.85990658 29.0625 35.4375 C23.1225 35.4375 17.1825 35.4375 11.0625 35.4375 C10.9078125 32.653125 10.9078125 32.653125 10.75 29.8125 C10.3418613 24.80244964 9.79682719 20.17182719 6.0625 16.4375 C4.10947598 16.25968737 2.14809305 16.16966579 0.1875 16.125 C-1.41738281 16.06892578 -1.41738281 16.06892578 -3.0546875 16.01171875 C-6.01099755 16.16291061 -6.01099755 16.16291061 -7.78515625 18.21875 C-9.56610959 21.64783983 -9.74104241 24.73421759 -8.9375 28.4375 C-5.74466617 34.99811747 1.43057308 38.41112392 7.38671875 42.1171875 C27.47416722 54.67250166 27.47416722 54.67250166 31.0625 65.4375 C31.33893387 68.49504928 31.33988906 71.55630412 31.375 74.625 C31.40400391 75.45064453 31.43300781 76.27628906 31.46289062 77.12695312 C31.53526323 84.19163317 29.80663763 89.29896202 25.1328125 94.64453125 C15.10106562 102.92374404 6.88441477 103.99054513 -5.9375 103.4375 C-11.95982152 102.75425445 -17.40801607 100.47200939 -21.9375 96.4375 C-28.00036681 88.44135462 -29.0992769 81.87609996 -29 72.125 C-28.979375 69.258125 -28.95875 66.39125 -28.9375 63.4375 C-22.6675 63.4375 -16.3975 63.4375 -9.9375 63.4375 C-9.5625 72.125 -9.5625 72.125 -9.45947266 74.8347168 C-9.16862314 80.87331043 -9.16862314 80.87331043 -6.9375 86.4375 C-1.85352433 88.13215856 3.15560696 88.31149264 8.0625 86.0625 C10.15966677 84.58663969 10.15966677 84.58663969 11.0625 82.4375 C11.21042873 80.67088962 11.2837169 78.89755936 11.3125 77.125 C11.35117188 75.70767578 11.35117188 75.70767578 11.390625 74.26171875 C10.8947884 69.99398231 9.59455443 67.65236346 6.19580078 64.95727539 C3.82987006 63.29169952 1.42620482 61.70141735 -1 60.125 C-2.72321146 58.9754355 -4.44458339 57.82310851 -6.1640625 56.66796875 C-6.98938477 56.11415527 -7.81470703 55.5603418 -8.66503906 54.98974609 C-17.68766312 48.82667736 -25.78220785 42.31284706 -28.9375 31.4375 C-30.12510405 22.73203546 -29.05630452 15.66325308 -23.9375 8.4375 C-17.69208305 1.13651962 -9.03015137 -0.07565245 0 0 Z " fill="#080808" transform="translate(95.9375,340.5625)"/>
<path d="M0 0 C6.93 0 13.86 0 21 0 C21 20.79 21 41.58 21 63 C23.64 63 26.28 63 29 63 C29 67.95 29 72.9 29 78 C26.36 78 23.72 78 21 78 C21 84.6 21 91.2 21 98 C14.73 98 8.46 98 2 98 C2 91.4 2 84.8 2 78 C-8.56 78 -19.12 78 -30 78 C-30 60.0061703 -30 60.0061703 -26.95703125 54.203125 C-26.63675964 53.56840271 -26.31648804 52.93368042 -25.98651123 52.27972412 C-24.95694006 50.25362243 -23.8857747 48.25322978 -22.8125 46.25 C-22.08292733 44.83126227 -21.35698763 43.41065099 -20.63452148 41.98828125 C-19.52851192 39.81217541 -18.42029651 37.63756982 -17.29981995 35.46887207 C-13.48819411 28.08498806 -10.01129222 20.55839067 -6.5625 13 C-5.50329912 10.68658461 -4.44229552 8.37399314 -3.37890625 6.0625 C-2.9413501 5.10472656 -2.50379395 4.14695312 -2.05297852 3.16015625 C-1 1 -1 1 0 0 Z " fill="#0B0B0B" transform="translate(617,344)"/>
<path d="M0 0 C17.16 0 34.32 0 52 0 C52 4.95 52 9.9 52 15 C41.11 15 30.22 15 19 15 C19 22.92 19 30.84 19 39 C27.91 39 36.82 39 46 39 C46 43.95 46 48.9 46 54 C37.09 54 28.18 54 19 54 C19 63.9 19 73.8 19 84 C29.89 84 40.78 84 52 84 C52 88.95 52 93.9 52 99 C34.84 99 17.68 99 0 99 C0 66.33 0 33.66 0 0 Z " fill="#0B0B0B" transform="translate(3,343)"/>
<path d="M0 0 C17.16 0 34.32 0 52 0 C52 4.62 52 9.24 52 14 C41.11 14 30.22 14 19 14 C19 22.25 19 30.5 19 39 C27.91 39 36.82 39 46 39 C46 43.95 46 48.9 46 54 C37.09 54 28.18 54 19 54 C19 63.9 19 73.8 19 84 C30.22 84 41.44 84 53 84 C53 88.95 53 93.9 53 99 C35.51 99 18.02 99 0 99 C0 66.33 0 33.66 0 0 Z " fill="#0B0B0B" transform="translate(215,343)"/>
<path d="M0 0 C6.05768951 3.72130316 9.9917141 9.29341412 12.1875 16 C13.39331682 27.94854847 11.22857309 37.28022528 3.96484375 46.81640625 C-0.2051181 51.78401603 -5.00536085 56.19101627 -9.64501953 60.71191406 C-15.99021886 66.97693686 -21.5994893 73.14795722 -23.8125 82 C-12.2625 82 -0.7125 82 11.1875 82 C11.1875 86.95 11.1875 91.9 11.1875 97 C-6.9625 97 -25.1125 97 -43.8125 97 C-43.8125 76.82520886 -36.94307041 64.61884065 -23.33349609 50.57714844 C-20.95263218 48.10838746 -18.63106399 45.58997448 -16.3125 43.0625 C-15.5390625 42.22847656 -14.765625 41.39445312 -13.96875 40.53515625 C-9.33180476 35.08338549 -7.25395082 31.67901002 -7.3125 24.375 C-7.3021875 23.08335937 -7.291875 21.79171875 -7.28125 20.4609375 C-7.54539358 16.97431852 -7.54539358 16.97431852 -9.58984375 14.55859375 C-13.17294463 12.0460151 -15.50581146 12.65819932 -19.8125 13 C-20.8025 13.33 -21.7925 13.66 -22.8125 14 C-24.1587194 17.38570149 -24.12287584 21.14822622 -24.375 24.75 C-24.519375 26.8125 -24.66375 28.875 -24.8125 31 C-30.7525 31 -36.6925 31 -42.8125 31 C-43.09329607 21.03173943 -42.65511856 11.8519048 -35.8125 4 C-26.31999989 -3.47163583 -11.10692265 -5.07647692 0 0 Z " fill="#0A0A0A" transform="translate(565.8125,345)"/>
<path d="M0 0 C5.87303457 3.61811729 10.08583352 8.32955764 12.1875 14.9375 C13.29251714 26.06476557 12.03724475 35.94964517 5.375 45.1875 C1.20409024 50.22509231 -3.58107862 54.6894195 -8.23999023 59.26831055 C-15.08387332 66.06766944 -21.18076975 72.14711848 -22.8125 81.9375 C-11.5925 81.9375 -0.3725 81.9375 11.1875 81.9375 C11.1875 86.8875 11.1875 91.8375 11.1875 96.9375 C-6.6325 96.9375 -24.4525 96.9375 -42.8125 96.9375 C-42.8125 75.08262491 -35.91249658 63.22602344 -21.0546875 48.13671875 C-19.36305725 46.47286154 -17.6704181 44.81002918 -15.9765625 43.1484375 C-10.30305352 37.35203663 -6.82697068 31.61738598 -6.5 23.375 C-6.58537347 19.48065639 -7.30021705 17.02954055 -9.8125 13.9375 C-12.94650885 12.37049558 -16.44405095 12.08585439 -19.8125 12.9375 C-23.68814321 16.61456785 -24.35069067 19.50771907 -24.5625 24.75 C-24.645 26.791875 -24.7275 28.83375 -24.8125 30.9375 C-30.7525 30.9375 -36.6925 30.9375 -42.8125 30.9375 C-42.16454856 11.49895675 -42.16454856 11.49895675 -35.9453125 4.98046875 C-26.67184377 -3.61061266 -11.65036769 -5.41546143 0 0 Z " fill="#090909" transform="translate(433.8125,345.0625)"/>
<path d="M0 0 C2.68418605 1.06943902 4.59353891 2.31547724 7 4 C7.33 4.99 7.66 5.98 8 7 C8.54269531 6.57847656 9.08539063 6.15695312 9.64453125 5.72265625 C10.35996094 5.17480469 11.07539063 4.62695312 11.8125 4.0625 C12.52019531 3.51722656 13.22789062 2.97195313 13.95703125 2.41015625 C17.98831967 -0.3724348 22.25213741 -0.61852889 27 0 C30.87343213 1.34227846 33.48093115 3.29674544 35.9375 6.625 C38.36374878 14.3319079 37.22314089 20.74793299 34 28 C34.825 28.391875 35.65 28.78375 36.5 29.1875 C37.325 29.785625 38.15 30.38375 39 31 C39.3125 33.6875 39.3125 33.6875 39 36 C36.8125 36.25 36.8125 36.25 34 36 C33.319375 35.34 32.63875 34.68 31.9375 34 C28.46525361 31.63591735 27.16782366 31.83781437 23.0625 32 C17.51287365 32.21160937 15.15944417 31.61214888 11 28 C10.34 27.67 9.68 27.34 9 27 C8.34 27.99 7.68 28.98 7 30 C1.03484618 32.22231221 -4.2245951 33.06746342 -10.25 30.75 C-13.5222834 28.66763784 -15.43082382 26.89460042 -16.55859375 23.140625 C-17.91030797 16.58540916 -17.34335643 10.87969578 -14 5 C-9.30393108 0.64754588 -6.43160072 -0.52718039 0 0 Z " fill="#0C0C0C" transform="translate(302,520)"/>
<path d="M0 0 C2.60910938 1.64674868 3.57632232 2.35688391 5 5 C5.74530344 9.54814933 5.65207791 14.05694407 5.59375 18.65625 C5.59203746 20.00475966 5.59210604 21.35327264 5.59387207 22.70178223 C5.59222158 25.52303071 5.57357613 28.34348193 5.54199219 31.16455078 C5.50231412 34.77271157 5.49794833 38.37982924 5.50545502 41.98816681 C5.50853113 44.77127564 5.49638167 47.55415191 5.47932434 50.33720398 C5.46891787 52.31189626 5.4684473 54.28663286 5.46813965 56.26135254 C5.44427185 58.06847717 5.44427185 58.06847717 5.41992188 59.91210938 C5.41150269 60.96958374 5.4030835 62.02705811 5.39440918 63.11657715 C4.94233784 66.42155306 3.96107349 68.3234948 2 71 C-0.87470493 72.43735246 -2.81894588 72.38172649 -6 72 C-10.18302002 67.81697998 -11.12267751 64.36403012 -11.14526367 58.59814453 C-11.15164352 57.49334747 -11.15802338 56.38855042 -11.16459656 55.25027466 C-11.16570938 54.05651215 -11.1668222 52.86274963 -11.16796875 51.6328125 C-11.17129715 50.40593719 -11.17462555 49.17906189 -11.17805481 47.91500854 C-11.1831216 45.31752905 -11.18546321 42.72004303 -11.18530273 40.12255859 C-11.18748736 36.1480028 -11.20564092 32.17372534 -11.22460938 28.19921875 C-11.2275437 25.67708428 -11.22952823 23.1549485 -11.23046875 20.6328125 C-11.23765427 19.44309845 -11.24483978 18.2533844 -11.25224304 17.02761841 C-11.24916641 15.91651703 -11.24608978 14.80541565 -11.24291992 13.66064453 C-11.24434494 12.68596222 -11.24576996 11.71127991 -11.24723816 10.70706177 C-10.91322513 7.04988397 -9.82998731 4.20348161 -7.75 1.1875 C-5.00877891 -0.67261431 -3.2320262 -0.51712419 0 0 Z " fill="#F9F9F9" transform="translate(488,357)"/>
<path d="M0 0 C2.68418605 1.06943902 4.59353891 2.31547724 7 4 C7.33 4.99 7.66 5.98 8 7 C8.66 7.33 9.32 7.66 10 8 C9.83757812 8.56847656 9.67515625 9.13695312 9.5078125 9.72265625 C8.47905417 14.33624167 8.56801665 19.23279537 9.6875 23.8125 C10 26 10 26 9 28.1875 C5.36209806 31.48434863 1.19958954 31.89477285 -3.5625 32.3125 C-8.30316871 31.88153012 -11.5387196 30.56205836 -14.8125 27.0625 C-17.49891992 22.39661277 -17.4877739 17.25022089 -17 12 C-15.37234998 6.77438677 -13.55440862 4.03627241 -9 1 C-5.88111322 -0.55944339 -3.4545855 -0.28316275 0 0 Z " fill="#F5F5F5" transform="translate(302,520)"/>
<path d="M0 0 C2.64 0 5.28 0 8 0 C8.99 4.29 9.98 8.58 11 13 C12.64561349 8.08043989 12.64561349 8.08043989 14.125 3.125 C14.41375 2.09375 14.7025 1.0625 15 0 C17.64 0 20.28 0 23 0 C23 9.24 23 18.48 23 28 C21.35 28 19.7 28 18 28 C17.67 22.06 17.34 16.12 17 10 C16.05453691 14.84581465 16.05453691 14.84581465 15.11547852 19.69287109 C14.11111111 24.77777778 14.11111111 24.77777778 13 27 C11.68 26.67 10.36 26.34 9 26 C8.01 21.38 7.02 16.76 6 12 C5.67 17.28 5.34 22.56 5 28 C3.35 28 1.7 28 0 28 C0 18.76 0 9.52 0 0 Z " fill="#191919" transform="translate(436,459)"/>
<path d="M0 0 C0.845625 -0.01289063 1.69125 -0.02578125 2.5625 -0.0390625 C5 0.625 5 0.625 7.27734375 2.6015625 C9.61366968 6.70205291 9.62654037 9.98395646 9.5625 14.625 C9.58634766 15.4190625 9.61019531 16.213125 9.63476562 17.03125 C9.62405591 21.31513707 9.37116827 23.13243937 6.71875 26.65234375 C2.63343815 29.61654272 0.94587819 29.33155403 -4 28.625 C-6.43119623 26.75484906 -7.64069173 25.34361655 -9 22.625 C-9.17759374 19.83881629 -9.2775623 17.10052812 -9.3125 14.3125 C-9.34150391 13.55259766 -9.37050781 12.79269531 -9.40039062 12.00976562 C-9.44407822 8.14173358 -9.24328627 6.05311702 -7.29296875 2.62109375 C-4.63382166 0.30623146 -3.48324003 -0.05309817 0 0 Z " fill="#141414" transform="translate(509,458.375)"/>
<path d="M0 0 C0.7528125 -0.0103125 1.505625 -0.020625 2.28125 -0.03125 C5.55661995 0.75299351 6.6004206 1.69545244 8.5 4.5 C9.01046496 7.70159374 8.92163735 10.82960916 8.8125 14.0625 C8.80283203 14.92552734 8.79316406 15.78855469 8.78320312 16.67773438 C8.71938315 20.24887813 8.63774094 23.08677717 7.5 26.5 C4.45512821 28.81410256 1.18092511 28.83572524 -2.5 29.05859375 C-5.85125656 28.12259827 -6.77617847 26.47132396 -8.5 23.5 C-9.07038627 20.29708997 -9.05932699 17.18318053 -9 13.9375 C-9.01546875 13.08736328 -9.0309375 12.23722656 -9.046875 11.36132812 C-9.02249616 7.47594984 -8.97990837 5.20165174 -6.75 1.94140625 C-4.25505208 0.34308024 -2.94061454 -0.04028239 0 0 Z " fill="#0C0C0C" transform="translate(80.5,458.5)"/>
<path d="M0 0 C4.62 0 9.24 0 14 0 C18 4 18 4 18.375 7 C18.02059186 9.83526512 17.48338437 11.58950039 16 14 C16.66 14.66 17.32 15.32 18 16 C18.1953125 18.6015625 18.1953125 18.6015625 18.125 21.625 C18.10695313 22.62789063 18.08890625 23.63078125 18.0703125 24.6640625 C18.04710938 25.43492187 18.02390625 26.20578125 18 27 C16.35 27 14.7 27 13 27 C13 23.7 13 20.4 13 17 C10.69 16.67 8.38 16.34 6 16 C6 19.96 6 23.92 6 28 C4.02 28 2.04 28 0 28 C0 18.76 0 9.52 0 0 Z " fill="#1D1D1D" transform="translate(47,459)"/>
<path d="M0 0 C3.96 0 7.92 0 12 0 C12 9.24 12 18.48 12 28 C10.68 28 9.36 28 8 28 C8 25.69 8 23.38 8 21 C5.03 21 2.06 21 -1 21 C-1.33 22.98 -1.66 24.96 -2 27 C-3.65 27 -5.3 27 -7 27 C-6.70870328 20.80994466 -5.63513329 14.97500026 -4.0625 9 C-3.89266602 8.3412085 -3.72283203 7.68241699 -3.54785156 7.00366211 C-2.73323209 4.01866361 -2.22435855 2.22435855 0 0 Z " fill="#1C1C1C" transform="translate(419,459)"/>
<path d="M0 0 C3.96 0 7.92 0 12 0 C12 8.91 12 17.82 12 27 C10.68 27 9.36 27 8 27 C8 25.02 8 23.04 8 21 C5.03 21 2.06 21 -1 21 C-1.33 22.98 -1.66 24.96 -2 27 C-3.65 27 -5.3 27 -7 27 C-6.70870328 20.80994466 -5.63513329 14.97500026 -4.0625 9 C-3.89266602 8.3412085 -3.72283203 7.68241699 -3.54785156 7.00366211 C-2.73323209 4.01866361 -2.22435855 2.22435855 0 0 Z " fill="#101010" transform="translate(202,459)"/>
<path d="M0 0 C3.96 0 7.92 0 12 0 C12 8.91 12 17.82 12 27 C10.68 27 9.36 27 8 27 C8 25.02 8 23.04 8 21 C5.03 21 2.06 21 -1 21 C-1.33 22.98 -1.66 24.96 -2 27 C-3.65 27 -5.3 27 -7 27 C-3.82242991 3.82242991 -3.82242991 3.82242991 0 0 Z " fill="#0E0E0E" transform="translate(144,459)"/>
<path d="M0 0 C12 0 12 0 17 3 C17.55859375 4.9375 17.55859375 4.9375 17.4375 7 C17.41558594 7.680625 17.39367187 8.36125 17.37109375 9.0625 C17 11 17 11 15 14 C15.66 14.66 16.32 15.32 17 16 C17.1953125 18.6015625 17.1953125 18.6015625 17.125 21.625 C17.10695313 22.62789063 17.08890625 23.63078125 17.0703125 24.6640625 C17.04710937 25.43492187 17.02390625 26.20578125 17 27 C15.35 27 13.7 27 12 27 C11.67 23.7 11.34 20.4 11 17 C9.02 16.67 7.04 16.34 5 16 C5 19.96 5 23.92 5 28 C3.35 28 1.7 28 0 28 C0 18.76 0 9.52 0 0 Z " fill="#0F0F0F" transform="translate(310,459)"/>
<path d="M0 0 C12 0 12 0 17 3 C17.54126778 7.25281824 17.33143618 10.35713096 15 14 C15.66 14.66 16.32 15.32 17 16 C17.1953125 18.6015625 17.1953125 18.6015625 17.125 21.625 C17.10695312 22.62789063 17.08890625 23.63078125 17.0703125 24.6640625 C17.04710937 25.43492187 17.02390625 26.20578125 17 27 C15.35 27 13.7 27 12 27 C11.67 23.7 11.34 20.4 11 17 C9.02 16.67 7.04 16.34 5 16 C5 19.96 5 23.92 5 28 C3.35 28 1.7 28 0 28 C0 18.76 0 9.52 0 0 Z " fill="#0F0F0F" transform="translate(219,459)"/>
<path d="M0 0 C0.33 0 0.66 0 1 0 C1 12.87 1 25.74 1 39 C-4.94 39 -10.88 39 -17 39 C-14.75 32.25 -14.75 32.25 -13.39599609 29.28955078 C-13.09583588 28.62931915 -12.79567566 27.96908752 -12.48641968 27.28884888 C-12.0097435 26.25254837 -12.0097435 26.25254837 -11.5234375 25.1953125 C-11.02827133 24.1093428 -11.02827133 24.1093428 -10.52310181 23.00143433 C-9.47657751 20.70797824 -8.42586008 18.41647217 -7.375 16.125 C-6.66117964 14.5626273 -5.9476351 13.00012855 -5.234375 11.4375 C-3.49277094 7.62353432 -1.74740578 3.81131083 0 0 Z " fill="#F8F8F8" transform="translate(618,368)"/>
<path d="M0 0 C1.98 0 3.96 0 6 0 C6 3.63 6 7.26 6 11 C7.98 11 9.96 11 12 11 C12 7.37 12 3.74 12 0 C13.98 0 15.96 0 18 0 C18 9.24 18 18.48 18 28 C16.35 28 14.7 28 13 28 C13 24.04 13 20.08 13 16 C10.69 16 8.38 16 6 16 C6 19.96 6 23.92 6 28 C4.02 28 2.04 28 0 28 C0 18.76 0 9.52 0 0 Z " fill="#272727" transform="translate(571,459)"/>
<path d="M0 0 C1.98 0 3.96 0 6 0 C6 3.63 6 7.26 6 11 C7.98 11 9.96 11 12 11 C12 7.37 12 3.74 12 0 C13.98 0 15.96 0 18 0 C18 9.24 18 18.48 18 28 C16.02 28 14.04 28 12 28 C12 24.04 12 20.08 12 16 C9.69 16 7.38 16 5 16 C5 19.96 5 23.92 5 28 C3.35 28 1.7 28 0 28 C0 18.76 0 9.52 0 0 Z " fill="#272727" transform="translate(265,459)"/>
<path d="M0 0 C1.65 0 3.3 0 5 0 C5.63032133 1.20556604 6.2539497 2.41463189 6.875 3.625 C7.22304688 4.29789062 7.57109375 4.97078125 7.9296875 5.6640625 C9.16314667 8.35606463 10.06360815 11.19082445 11 14 C11.33 9.38 11.66 4.76 12 0 C13.65 0 15.3 0 17 0 C17 8.91 17 17.82 17 27 C15.02 27 13.04 27 11 27 C9.35 22.71 7.7 18.42 6 14 C5.67 18.62 5.34 23.24 5 28 C3.35 28 1.7 28 0 28 C0 18.76 0 9.52 0 0 Z " fill="#141414" transform="translate(525,459)"/>
<path d="M0 0 C1.65 0 3.3 0 5 0 C5.81498562 1.6029053 6.62689927 3.20737278 7.4375 4.8125 C8.11619141 6.15248047 8.11619141 6.15248047 8.80859375 7.51953125 C10 10 10 10 11 13 C11.33 8.71 11.66 4.42 12 0 C13.65 0 15.3 0 17 0 C17 8.91 17 17.82 17 27 C15.35 27 13.7 27 12 27 C11.37237545 25.77217138 10.74803935 24.54266164 10.125 23.3125 C9.77695313 22.62800781 9.42890625 21.94351562 9.0703125 21.23828125 C7.93967982 18.87385597 6.97335801 16.43339502 6 14 C5.67 18.62 5.34 23.24 5 28 C3.35 28 1.7 28 0 28 C0 18.76 0 9.52 0 0 Z " fill="#121212" transform="translate(161,459)"/>
<path d="M0 0 C2.9375 1.1875 2.9375 1.1875 5 3 C5.3125 5.6875 5.3125 5.6875 5 8 C4.484375 7.835 3.96875 7.67 3.4375 7.5 C0.16039147 6.82777261 -2.66389912 6.6967181 -6 7 C-8.09042646 9.10973756 -8.91754929 10.49559565 -9.3984375 13.4375 C-9.39070313 14.283125 -9.38296875 15.12875 -9.375 16 C-9.38273437 16.845625 -9.39046875 17.69125 -9.3984375 18.5625 C-8.91754929 21.50440435 -8.09042646 22.89026244 -6 25 C-2.1345378 25.35140565 1.29567073 25.18538537 5 24 C5.3125 26.3125 5.3125 26.3125 5 29 C2.19801811 31.46234772 0.26943558 31.97060703 -3.4375 32.375 C-8.21998781 31.87158023 -11.49877718 30.60475543 -14.8125 27.0625 C-17.49891992 22.39661277 -17.4877739 17.25022089 -17 12 C-15.37234998 6.77438677 -13.55440862 4.03627241 -9 1 C-5.93570224 -0.53214888 -3.3834358 -0.22938548 0 0 Z " fill="#0D0D0D" transform="translate(302,520)"/>
<path d="M0 0 C1.65 0 3.3 0 5 0 C5 3.96 5 7.92 5 12 C7.31 12 9.62 12 12 12 C12 8.04 12 4.08 12 0 C13.98 0 15.96 0 18 0 C18.02886338 4.47915328 18.04675187 8.95828291 18.0625 13.4375 C18.07087891 14.71689453 18.07925781 15.99628906 18.08789062 17.31445312 C18.09272461 19.13686523 18.09272461 19.13686523 18.09765625 20.99609375 C18.10551147 22.68496704 18.10551147 22.68496704 18.11352539 24.40795898 C18 27 18 27 17 28 C15.35 28 13.7 28 12 28 C12 24.04 12 20.08 12 16 C9.69 16 7.38 16 5 16 C5 19.96 5 23.92 5 28 C3.35 28 1.7 28 0 28 C0 18.76 0 9.52 0 0 Z " fill="#1C1C1C" transform="translate(389,459)"/>
<path d="M0 0 C1.98 0 3.96 0 6 0 C6.33 7.26 6.66 14.52 7 22 C8.32 22 9.64 22 11 22 C11.33 14.74 11.66 7.48 12 0 C13.98 0 15.96 0 18 0 C18.14567407 3.56206722 18.23419196 7.12336551 18.3125 10.6875 C18.35439453 11.69490234 18.39628906 12.70230469 18.43945312 13.74023438 C18.56253591 21.19905132 18.56253591 21.19905132 15.76953125 25.17578125 C12.94907964 27.03353992 11.69482099 27.63689983 8.375 27.5 C7.61960937 27.4896875 6.86421875 27.479375 6.0859375 27.46875 C3.50921036 26.88971019 2.60867873 26.06690843 1 24 C0.01956036 21.05868109 -0.11621202 19.17498335 -0.09765625 16.11328125 C-0.09443359 15.17548828 -0.09121094 14.23769531 -0.08789062 13.27148438 C-0.07532227 11.80678711 -0.07532227 11.80678711 -0.0625 10.3125 C-0.05798828 9.32443359 -0.05347656 8.33636719 -0.04882812 7.31835938 C-0.03704303 4.87884526 -0.02059011 2.43945311 0 0 Z " fill="#202020" transform="translate(23,460)"/>
<path d="M0 0 C4.29 0 8.58 0 13 0 C17 4 17 4 17.5625 7.9375 C17.37704442 11.2447912 16.921958 12.11351564 14.9375 15 C11.35342568 17.44022082 9.25018379 17.41668469 5 17 C5 20.63 5 24.26 5 28 C3.35 28 1.7 28 0 28 C0 18.76 0 9.52 0 0 Z " fill="#121212" transform="translate(96,459)"/>
<path d="M0 0 C12 0 12 0 16 3 C17.12830131 5.99757661 17.3173883 8.82054874 17 12 C15 15.0625 15 15.0625 12 17 C8.1875 17.3125 8.1875 17.3125 5 17 C5 20.63 5 24.26 5 28 C3.35 28 1.7 28 0 28 C0 18.76 0 9.52 0 0 Z " fill="#111111" transform="translate(608,459)"/>
<path d="M0 0 C12 0 12 0 15.25 1.5625 C17.67101916 4.93463383 17.57122065 6.9300529 17 11 C14.8 15.6 14.8 15.6 12 17 C9.6670134 17.04022391 7.33293334 17.04320247 5 17 C5 20.3 5 23.6 5 27 C3.35 27 1.7 27 0 27 C0 18.09 0 9.18 0 0 Z " fill="#111111" transform="translate(466,459)"/>
<path d="M0 0 C0.7734375 -0.00773437 1.546875 -0.01546875 2.34375 -0.0234375 C5.00985517 0.46921237 5.90723988 1.20581241 7.5 3.375 C7.6875 6.5625 7.6875 6.5625 7.5 9.375 C5.85 9.375 4.2 9.375 2.5 9.375 C2.17 8.055 1.84 6.735 1.5 5.375 C0.18 5.045 -1.14 4.715 -2.5 4.375 C-1.31826157 9.39738831 1.67843162 11.2712488 5.72265625 14.04296875 C7.5 15.375 7.5 15.375 8.5 17.375 C8.875 20.75 8.875 20.75 8.5 24.375 C6.38441539 26.95336875 4.81258474 28.09948716 1.52734375 28.7890625 C-2.22997178 29.05593725 -4.12399851 28.69460127 -7 26.25 C-8.69511045 23.00103831 -8.83609819 20.98805558 -8.5 17.375 C-6.52 17.375 -4.54 17.375 -2.5 17.375 C-2.17 19.355 -1.84 21.335 -1.5 23.375 C-0.18 23.375 1.14 23.375 2.5 23.375 C2.19709479 20.14217525 1.96795722 18.76865022 -0.56640625 16.63671875 C-1.39011719 16.11722656 -2.21382812 15.59773438 -3.0625 15.0625 C-7.29911567 11.98438655 -7.29911567 11.98438655 -8.19921875 9.25390625 C-8.26898368 6.32914554 -7.99869271 4.04915867 -6.234375 1.6640625 C-4.02943135 0.02525303 -2.72618076 -0.02726181 0 0 Z " fill="#121212" transform="translate(556.5,458.625)"/>
<path d="M0 0 C0.7734375 -0.00773437 1.546875 -0.01546875 2.34375 -0.0234375 C5.00985517 0.46921237 5.90723988 1.20581241 7.5 3.375 C7.6875 6.5625 7.6875 6.5625 7.5 9.375 C5.85 9.375 4.2 9.375 2.5 9.375 C2.5 7.725 2.5 6.075 2.5 4.375 C0.85 4.375 -0.8 4.375 -2.5 4.375 C-1.31826157 9.39738831 1.67843162 11.2712488 5.72265625 14.04296875 C7.5 15.375 7.5 15.375 8.5 17.375 C8.875 20.75 8.875 20.75 8.5 24.375 C6.37487538 26.96499563 4.82810812 28.14761962 1.4921875 28.71875 C-1.40608908 28.84708697 -3.83462625 28.71841871 -6.4375 27.375 C-8.14300706 24.16463377 -8.20434404 20.98200273 -8.5 17.375 C-6.52 17.375 -4.54 17.375 -2.5 17.375 C-2.17 19.355 -1.84 21.335 -1.5 23.375 C-0.18 23.375 1.14 23.375 2.5 23.375 C2.61635105 21.07718446 2.61635105 21.07718446 1.5 18.375 C-0.46706973 16.64109587 -2.51669004 15.17620442 -4.6875 13.70703125 C-6.5 12.375 -6.5 12.375 -7.5 10.375 C-7.96276151 4.01202929 -7.96276151 4.01202929 -6.265625 1.67578125 C-4.03950954 0.03574486 -2.74399015 -0.0274399 0 0 Z " fill="#111111" transform="translate(637.5,458.625)"/>
<path d="M0 0 C4.95 0 9.9 0 15 0 C15 1.65 15 3.3 15 5 C12.03 5 9.06 5 6 5 C6 6.98 6 8.96 6 11 C8.31 11 10.62 11 13 11 C13 12.32 13 13.64 13 15 C10.69 15 8.38 15 6 15 C6 17.64 6 20.28 6 23 C8.97 23 11.94 23 15 23 C15 24.65 15 26.3 15 28 C10.05 28 5.1 28 0 28 C0 18.76 0 9.52 0 0 Z " fill="#272727" transform="translate(289,459)"/>
<path d="M0 0 C4.95 0 9.9 0 15 0 C15 1.65 15 3.3 15 5 C12.03 5 9.06 5 6 5 C6 6.98 6 8.96 6 11 C8.31 11 10.62 11 13 11 C13 12.32 13 13.64 13 15 C10.69 15 8.38 15 6 15 C6 17.64 6 20.28 6 23 C8.97 23 11.94 23 15 23 C15 24.65 15 26.3 15 28 C10.05 28 5.1 28 0 28 C0 18.76 0 9.52 0 0 Z " fill="#262626" transform="translate(118,459)"/>
<path d="M0 0 C3.29447199 0.0419678 4.42906591 0.1423117 7.25 2 C8.92051458 4.68734955 9.03288204 6.20406165 8.6875 9.3125 C7.0375 9.3125 5.3875 9.3125 3.6875 9.3125 C3.3575 7.9925 3.0275 6.6725 2.6875 5.3125 C1.3675 5.3125 0.0475 5.3125 -1.3125 5.3125 C-1.3125 11.5825 -1.3125 17.8525 -1.3125 24.3125 C0.0075 24.3125 1.3275 24.3125 2.6875 24.3125 C3.0175 22.0025 3.3475 19.6925 3.6875 17.3125 C5.3375 17.3125 6.9875 17.3125 8.6875 17.3125 C9.02359819 20.92555558 8.88261045 22.93853831 7.1875 26.1875 C4.14195049 28.77621709 2.4862755 28.98888895 -1.41015625 28.7421875 C-4.326661 28.08342873 -5.60636686 26.70108639 -7.3125 24.3125 C-9.37183036 18.13450891 -9.45820989 10.11099144 -6.875 4.0625 C-4.71146991 0.25468703 -4.26797263 0.13271928 0 0 Z " fill="#161616" transform="translate(374.3125,458.6875)"/>
<path d="M0 0 C7.92 0 15.84 0 24 0 C24 1.65 24 3.3 24 5 C21.03 5 18.06 5 15 5 C15 13.25 15 21.5 15 30 C13.02 30 11.04 30 9 30 C9 21.75 9 13.5 9 5 C6.36 5 3.72 5 1 5 C0.67 3.35 0.34 1.7 0 0 Z " fill="#060606" transform="translate(341,521)"/>
<path d="M0 0 C0.7734375 -0.0103125 1.546875 -0.020625 2.34375 -0.03125 C4.5 0.5 4.5 0.5 6.25390625 2.19140625 C8.53438361 6.41636587 8.09969261 10.84031946 7.5 15.5 C6 18.6875 6 18.6875 3.5 20.5 C0.48442829 21.16743036 -1.32268211 20.95390256 -4.5 20.5 C-6.83961522 18.24526878 -7.45053087 16.85695369 -7.8984375 13.625 C-7.88683594 12.078125 -7.88683594 12.078125 -7.875 10.5 C-7.88273437 9.46875 -7.89046875 8.4375 -7.8984375 7.375 C-7.18628149 2.23630562 -5.25905049 -0.07012067 0 0 Z " fill="#F9F9F9" transform="translate(324.5,525.5)"/>
<path d="M0 0 C2.1640625 0.38671875 2.1640625 0.38671875 4.7265625 2.07421875 C6.39707708 4.7615683 6.50944454 6.2782804 6.1640625 9.38671875 C4.5140625 9.38671875 2.8640625 9.38671875 1.1640625 9.38671875 C0.8340625 8.06671875 0.5040625 6.74671875 0.1640625 5.38671875 C-1.1559375 5.38671875 -2.4759375 5.38671875 -3.8359375 5.38671875 C-3.8359375 11.65671875 -3.8359375 17.92671875 -3.8359375 24.38671875 C-2.5159375 23.72671875 -1.1959375 23.06671875 0.1640625 22.38671875 C0.97577478 19.83151954 0.97577478 19.83151954 1.1640625 17.38671875 C2.8140625 17.38671875 4.4640625 17.38671875 6.1640625 17.38671875 C6.50016069 20.99977433 6.35917295 23.01275706 4.6640625 26.26171875 C1.99998674 28.52618315 1.4183568 28.7325946 -1.8984375 28.82421875 C-5.8359375 28.38671875 -5.8359375 28.38671875 -8.8359375 26.38671875 C-10.22214912 22.22808389 -10.05991211 18.30521766 -10.0859375 13.94921875 C-10.1065625 13.09005859 -10.1271875 12.23089844 -10.1484375 11.34570312 C-10.17084826 7.73476982 -10.18194618 5.10384085 -8.59765625 1.8203125 C-5.78397652 -0.46931158 -3.49743333 -0.16518822 0 0 Z " fill="#111111" transform="translate(252.8359375,458.61328125)"/>
<path d="M0 0 C4.62 0 9.24 0 14 0 C14 1.32 14 2.64 14 4 C11.03 4 8.06 4 5 4 C5 6.31 5 8.62 5 11 C7.31 11 9.62 11 12 11 C12 12.32 12 13.64 12 15 C9.69 15 7.38 15 5 15 C5 17.64 5 20.28 5 23 C7.97 23 10.94 23 14 23 C14 24.32 14 25.64 14 27 C9.38 27 4.76 27 0 27 C0 18.09 0 9.18 0 0 Z " fill="#0B0B0B" transform="translate(3,459)"/>
<path d="M0 0 C1.65 0 3.3 0 5 0 C7.03435531 3.72965139 8 5.66905042 8 10 C8.66 10 9.32 10 10 10 C10.12375 9.0925 10.2475 8.185 10.375 7.25 C10.92109677 4.41029677 11.57263803 2.47409409 13 0 C14.65 0 16.3 0 18 0 C17.57514495 3.3988404 16.77503755 5.37962414 15 8.375 C11.81527176 14.35213488 12.17253399 21.37469463 12 28 C10.02 28 8.04 28 6 28 C5.98582031 27.04480469 5.97164063 26.08960938 5.95703125 25.10546875 C5.6642417 17.16849795 4.83735652 11.23567001 1.05859375 4.07421875 C0 2 0 2 0 0 Z " fill="#191919" transform="translate(332,459)"/>
<path d="M0 0 C4.32425578 3.26721548 7.29353656 5.69100262 9 11 C10.00426774 23.7844878 10.00426774 23.7844878 7 28 C5.68472582 28.70162387 4.35229749 29.37269328 3 30 C-0.90097315 23.46760117 -1.54740502 18.59512082 -1.3125 11.0625 C-1.30283203 10.10537109 -1.29316406 9.14824219 -1.28320312 8.16210938 C-1.169051 1.169051 -1.169051 1.169051 0 0 Z " fill="#9B525D" transform="translate(361,117)"/>
<path d="M0 0 C0.22769049 5.35072662 0.15297375 11.01363155 -2 16 C-4.55322262 17.61120702 -7.05933203 18.36985686 -10 19 C-10.20625 18.46375 -10.4125 17.9275 -10.625 17.375 C-12.57996944 13.9982346 -15.18223695 11.69525161 -18 9 C-16.2530224 4.77000856 -14.19275533 3.68743633 -10.171875 1.81640625 C-6.84690462 0.56655228 -3.57018078 0 0 0 Z " fill="#A25F68" transform="translate(352,112)"/>
<path d="M0 0 C2 1 2 1 3.125 3.25 C4.00641776 6.02017011 4.0799841 8.1205724 4 11 C4.33 11.33 4.66 11.66 5 12 C5.52262008 17.22620078 4.38916075 22.3298298 2 27 C1.01 27.33 0.02 27.66 -1 28 C-4.82095415 21.67154468 -6.26377516 16.39465132 -5 9 C-3.64677743 5.75975771 -1.9946768 2.88515751 0 0 Z " fill="#AC6E77" transform="translate(284,120)"/>
<path d="M0 0 C-0.33 3.3 -0.66 6.6 -1 10 C-6.94 10 -12.88 10 -19 10 C-19 4 -19 4 -17.765625 2.16796875 C-15.65908932 0.77448608 -14.25993709 0.50996009 -11.75 0.3125 C-10.96238281 0.24804688 -10.17476563 0.18359375 -9.36328125 0.1171875 C-6.23188472 -0.03808836 -3.13463027 -0.06669426 0 0 Z " fill="#F3EAEB" transform="translate(380,91)"/>
<path d="M0 0 C1.98 0 3.96 0 6 0 C6 9.24 6 18.48 6 28 C4.35 28 2.7 28 1 28 C0 27 0 27 -0.11352539 24.40795898 C-0.10828857 23.28204346 -0.10305176 22.15612793 -0.09765625 20.99609375 C-0.09443359 19.78115234 -0.09121094 18.56621094 -0.08789062 17.31445312 C-0.07951172 16.03505859 -0.07113281 14.75566406 -0.0625 13.4375 C-0.05798828 12.15423828 -0.05347656 10.87097656 -0.04882812 9.54882812 C-0.03699545 6.36583978 -0.02051068 3.18294238 0 0 Z " fill="#2B2B2B" transform="translate(595,459)"/>
<path d="M0 0 C1.98 0 3.96 0 6 0 C6.02886338 4.47915328 6.04675187 8.95828291 6.0625 13.4375 C6.07087891 14.71689453 6.07925781 15.99628906 6.08789062 17.31445312 C6.09111328 18.52939453 6.09433594 19.74433594 6.09765625 20.99609375 C6.10289307 22.12200928 6.10812988 23.2479248 6.11352539 24.40795898 C6 27 6 27 5 28 C3.35 28 1.7 28 0 28 C0 18.76 0 9.52 0 0 Z " fill="#2F2F2F" transform="translate(488,459)"/>
<path d="M0 0 C2.41835897 0.08722937 4.83313316 0.19411373 7.25 0.3125 C7.93191406 0.33505859 8.61382812 0.35761719 9.31640625 0.38085938 C12.32562723 0.54154593 14.74669549 0.88091502 17.484375 2.16796875 C19 4 19 4 19 10 C13.06 10 7.12 10 1 10 C0.67 6.7 0.34 3.4 0 0 Z " fill="#F5EDEE" transform="translate(269,91)"/>
<path d="M0 0 C4.82360189 -0.19294408 8.49646738 0.24252386 13 2 C11.98976896 4.5255776 10.97936805 7.0497594 9.9375 9.5625 C9.1143095 11.7027953 8.49665311 13.76506102 8 16 C5.6568787 15.74438677 3.32156597 15.40729228 1 15 C-0.44207941 12.11584117 -0.09394887 9.58278472 -0.0625 6.375 C-0.05347656 5.18648438 -0.04445313 3.99796875 -0.03515625 2.7734375 C-0.02355469 1.85820313 -0.01195312 0.94296875 0 0 Z " fill="#B1747D" transform="translate(297,115)"/>
<path d="M0 0 C4.70588235 0.70588235 4.70588235 0.70588235 6 2 C6.12682623 4.47163686 6.18520251 6.90290611 6.1875 9.375 C6.19974609 10.06078125 6.21199219 10.7465625 6.22460938 11.453125 C6.23552331 15.19296797 6.1266842 16.8099737 4 20 C2.35 19.67 0.7 19.34 -1 19 C-1.02683987 16.02077407 -1.04676037 13.04178705 -1.0625 10.0625 C-1.07087891 9.21236328 -1.07925781 8.36222656 -1.08789062 7.48632812 C-1.09111328 6.67744141 -1.09433594 5.86855469 -1.09765625 5.03515625 C-1.10289307 4.2862915 -1.10812988 3.53742676 -1.11352539 2.76586914 C-1 1 -1 1 0 0 Z " fill="#F0F0F0" transform="translate(507,463)"/>
<path d="M0 0 C1.65 0 3.3 0 5 0 C6.57977708 3.15955417 6.18447084 6.53463817 6.1875 10 C6.19974609 10.73734375 6.21199219 11.4746875 6.22460938 12.234375 C6.22987395 14.15770058 6.12203447 16.08054263 6 18 C5.34 18.66 4.68 19.32 4 20 C0.46428571 19.46428571 0.46428571 19.46428571 -1 18 C-1.10002455 15.34346557 -1.13877463 12.71870728 -1.125 10.0625 C-1.12886719 9.32064453 -1.13273437 8.57878906 -1.13671875 7.81445312 C-1.12663501 2.25327002 -1.12663501 2.25327002 0 0 Z " fill="#F4F4F4" transform="translate(78,463)"/>
<path d="M0 0 C1.65 0 3.3 0 5 0 C4.67 8.58 4.34 17.16 4 26 C2.68 26 1.36 26 0 26 C0 17.42 0 8.84 0 0 Z " fill="#010101" transform="translate(436,460)"/>
<path d="M0 0 C1.98 0 3.96 0 6 0 C6 4.62 6 9.24 6 14 C3.36 14 0.72 14 -2 14 C-1.85795259 12.41632253 -1.71119847 10.83306682 -1.5625 9.25 C-1.48128906 8.36828125 -1.40007812 7.4865625 -1.31640625 6.578125 C-1.03761535 4.30649548 -0.61209423 2.20148177 0 0 Z " fill="#DFDFDF" transform="translate(204,462)"/>
<path d="M0 0 C1.98 0 3.96 0 6 0 C6 4.62 6 9.24 6 14 C3.36 14 0.72 14 -2 14 C-1.34 9.38 -0.68 4.76 0 0 Z " fill="#E8E8E8" transform="translate(146,462)"/>
<path d="M0 0 C1.65 0 3.3 0 5 0 C5 4.29 5 8.58 5 13 C3.02 13 1.04 13 -1 13 C-0.67 8.71 -0.34 4.42 0 0 Z " fill="#FCFCFC" transform="translate(421,463)"/>
<path d="M0 0 C0.66 0.33 1.32 0.66 2 1 C1.5696179 5.78483626 -0.20257483 7.52339755 -3.8125 10.5625 C-6.99976271 13.27897058 -10.07866526 15.99694961 -13 19 C-13.66 18.67 -14.32 18.34 -15 18 C-12.87684676 15.37350147 -10.75116327 12.74906226 -8.625 10.125 C-8.02171875 9.37863281 -7.4184375 8.63226563 -6.796875 7.86328125 C-6.21679688 7.14785156 -5.63671875 6.43242188 -5.0390625 5.6953125 C-4.50490723 5.03547363 -3.97075195 4.37563477 -3.42041016 3.69580078 C-2 2 -2 2 0 0 Z " fill="#962D3D" transform="translate(197,109)"/>
<path d="M0 0 C2.375 -0.125 2.375 -0.125 5 0 C7 2 7 2 7.25 4.5 C7 7 7 7 5 9 C2.375 9.125 2.375 9.125 0 9 C0 6.03 0 3.06 0 0 Z " fill="#D9D9D9" transform="translate(101,463)"/>
<path d="M0 0 C2 1 2 1 3.125 3.3125 C4 6 4 6 4 10 C1.69 10.33 -0.62 10.66 -3 11 C-3.75 9.4375 -3.75 9.4375 -4 7 C-2.86915563 4.49713591 -1.47860484 2.32992278 0 0 Z " fill="#99505B" transform="translate(284,120)"/>
<path d="M0 0 C1.66611905 -0.042721 3.33382885 -0.04063832 5 0 C6 1 6 1 6.125 4.5 C6 8 6 8 5 9 C3.33382885 9.04063832 1.66611905 9.042721 0 9 C0 6.03 0 3.06 0 0 Z " fill="#E4E4E4" transform="translate(613,463)"/>
<path d="M0 0 C1.66611905 -0.042721 3.33382885 -0.04063832 5 0 C6 1 6 1 6.125 4.5 C6 8 6 8 5 9 C3.33382885 9.04063832 1.66611905 9.042721 0 9 C0 6.03 0 3.06 0 0 Z " fill="#E2E2E2" transform="translate(471,463)"/>
<path d="M0 0 C2.375 -0.125 2.375 -0.125 5 0 C5.66 0.66 6.32 1.32 7 2 C6.44444444 6.55555556 6.44444444 6.55555556 5 8 C3.33382885 8.04063832 1.66611905 8.042721 0 8 C0 5.36 0 2.72 0 0 Z " fill="#E4E4E4" transform="translate(315,463)"/>
<path d="M0 0 C2.375 -0.125 2.375 -0.125 5 0 C5.66 0.66 6.32 1.32 7 2 C6.44444444 6.55555556 6.44444444 6.55555556 5 8 C3.33382885 8.04063832 1.66611905 8.042721 0 8 C0 5.36 0 2.72 0 0 Z " fill="#E3E3E3" transform="translate(224,463)"/>
<path d="M0 0 C0.33 0 0.66 0 1 0 C1 12.87 1 25.74 1 39 C0.67 39 0.34 39 0 39 C-0.33 28.44 -0.66 17.88 -1 7 C-1.99 7.495 -1.99 7.495 -3 8 C-1.125 2.25 -1.125 2.25 0 0 Z " fill="#ECECEC" transform="translate(618,368)"/>
<path d="M0 0 C0 9.9 0 19.8 0 30 C-3.96 30 -7.92 30 -12 30 C-12 29.67 -12 29.34 -12 29 C-8.37 29 -4.74 29 -1 29 C-1.10946343 24.70778769 -1.24018895 20.4164851 -1.375 16.125 C-1.4059375 14.90167969 -1.436875 13.67835938 -1.46875 12.41796875 C-1.50742187 11.25136719 -1.54609375 10.08476562 -1.5859375 8.8828125 C-1.63306885 7.26463623 -1.63306885 7.26463623 -1.68115234 5.61376953 C-1.74676322 2.84238346 -1.74676322 2.84238346 -4 1 C-2 0 -2 0 0 0 Z " fill="#B97982" transform="translate(315,128)"/>
<path d="M0 0 C0.33 0.66 0.66 1.32 1 2 C1.78375 1.814375 2.5675 1.62875 3.375 1.4375 C6 1 6 1 8 2 C7.1875 5.4375 7.1875 5.4375 6 9 C5.01 9.33 4.02 9.66 3 10 C0.96564469 6.27034861 0 4.33094958 0 0 Z " fill="#9F5964" transform="translate(280,138)"/>
<path d="M0 0 C0 0.33 0 0.66 0 1 C-1.423125 1.12375 -1.423125 1.12375 -2.875 1.25 C-6.01818147 1.64396883 -6.01818147 1.64396883 -7.1875 3.65625 C-8.21714984 6.62639377 -8.19319516 9.11302274 -8.125 12.25 C-8.10695313 13.32765625 -8.08890625 14.4053125 -8.0703125 15.515625 C-8.04710937 16.33546875 -8.02390625 17.1553125 -8 18 C-10.09933151 16.29603331 -10.92588781 15.39392968 -11.43359375 12.6953125 C-11.43995121 8.51210484 -11.33355049 5.66710098 -9.4375 1.875 C-6.18515971 -0.62680023 -4.0000237 -0.38461766 0 0 Z " fill="#C6C6C6" transform="translate(303,526)"/>
<path d="M0 0 C1.98 0 3.96 0 6 0 C6.04254356 1.99954746 6.04080783 4.00041636 6 6 C5 7 5 7 2.4375 7.0625 C1.2309375 7.0315625 1.2309375 7.0315625 0 7 C0 4.69 0 2.38 0 0 Z " fill="#F3F3F3" transform="translate(53,464)"/>
<path d="M0 0 C1.32 0.66 2.64 1.32 4 2 C4 4 4 4 2.35546875 5.7265625 C1.64003906 6.35304688 0.92460937 6.97953125 0.1875 7.625 C-0.52019531 8.25664063 -1.22789062 8.88828125 -1.95703125 9.5390625 C-4 11 -4 11 -7 11 C-4.69 7.37 -2.38 3.74 0 0 Z " fill="#F3E7E8" transform="translate(311,118)"/>
<path d="M0 0 C0.33 4.29 0.66 8.58 1 13 C-5 5 -5 5 -5 1 C-3 0 -3 0 0 0 Z " fill="#F4E8EA" transform="translate(346,115)"/>
<path d="M0 0 C1.20076172 0.06960938 1.20076172 0.06960938 2.42578125 0.140625 C3.23402344 0.17671875 4.04226563 0.2128125 4.875 0.25 C5.79732422 0.31960938 5.79732422 0.31960938 6.73828125 0.390625 C6.73828125 0.720625 6.73828125 1.050625 6.73828125 1.390625 C4.09828125 1.390625 1.45828125 1.390625 -1.26171875 1.390625 C-4.16979327 7.3885287 -3.50877373 12.99946824 -2.26171875 19.390625 C-4.66472288 17.55340755 -5.22261745 16.66318408 -5.66015625 13.61328125 C-5.65242188 12.57042969 -5.6446875 11.52757812 -5.63671875 10.453125 C-5.64445312 9.41285156 -5.6521875 8.37257813 -5.66015625 7.30078125 C-5.11749806 3.3372484 -4.19322992 0.72421933 0 0 Z " fill="#BBBBBB" transform="translate(322.26171875,525.609375)"/>
<path d="M0 0 C1.85546875 0.25390625 1.85546875 0.25390625 4 1 C5.30078125 2.77734375 5.30078125 2.77734375 6.3125 4.9375 C6.65925781 5.64777344 7.00601562 6.35804687 7.36328125 7.08984375 C7.57339844 7.72019531 7.78351563 8.35054687 8 9 C7.67 9.66 7.34 10.32 7 11 C4.36 8.36 1.72 5.72 -1 3 C-0.67 2.01 -0.34 1.02 0 0 Z " fill="#F6ECED" transform="translate(337,118)"/>
<path d="M0 0 C1.65 0 3.3 0 5 0 C5 1.65 5 3.3 5 5 C6.65 5 8.3 5 10 5 C9.360625 5.12375 8.72125 5.2475 8.0625 5.375 C7.0415625 5.684375 7.0415625 5.684375 6 6 C5.67 6.66 5.34 7.32 5 8 C2.5 6.25 2.5 6.25 0 4 C0 2.68 0 1.36 0 0 Z " fill="#E6E6E6" transform="translate(635,463)"/>
<path d="M0 0 C1.32 0 2.64 0 4 0 C3.67 4.29 3.34 8.58 3 13 C2.34 12.67 1.68 12.34 1 12 C0.5859375 9.27734375 0.5859375 9.27734375 0.375 5.9375 C0.30023438 4.83277344 0.22546875 3.72804688 0.1484375 2.58984375 C0.09945313 1.73519531 0.05046875 0.88054687 0 0 Z " fill="#F4E9EB" transform="translate(347,115)"/>
<path d="M0 0 C2.475 0.495 2.475 0.495 5 1 C5 2.32 5 3.64 5 5 C6.65 5 8.3 5 10 5 C9.360625 5.12375 8.72125 5.2475 8.0625 5.375 C7.0415625 5.684375 7.0415625 5.684375 6 6 C5.67 6.66 5.34 7.32 5 8 C2.5 6.25 2.5 6.25 0 4 C0 2.68 0 1.36 0 0 Z " fill="#EAEAEA" transform="translate(554,463)"/>
<path d="M0 0 C1.65 0.33 3.3 0.66 5 1 C3.02 4.63 1.04 8.26 -1 12 C-2.24142712 7.03429151 -1.37261666 4.84452938 0 0 Z " fill="#F7EEEF" transform="translate(305,116)"/>
<path d="M0 0 C1.65 0 3.3 0 5 0 C3.515 6.435 3.515 6.435 2 13 C1.67 13 1.34 13 1 13 C0.67 8.71 0.34 4.42 0 0 Z " fill="#F7EEEF" transform="translate(299,115)"/>
<path d="M0 0 C0.33 0 0.66 0 1 0 C1.05425226 2.39614126 1.09379027 4.79103853 1.125 7.1875 C1.14175781 7.86103516 1.15851563 8.53457031 1.17578125 9.22851562 C1.21538674 13.28807807 0.80020002 16.34998815 -1 20 C-1.99 19.01 -2.98 18.02 -4 17 C-3.525625 16.05125 -3.05125 15.1025 -2.5625 14.125 C-0.57242218 9.5534533 -0.28773098 4.93111373 0 0 Z " fill="#C7C7C7" transform="translate(339,530)"/>
<path d="M0 0 C0 1.65 0 3.3 0 5 C-2.64 4.67 -5.28 4.34 -8 4 C-8 3.01 -8 2.02 -8 1 C-5.10765685 0.17361624 -3.11257569 0 0 0 Z " fill="#F5EAEB" transform="translate(369,131)"/>
<path d="M0 0 C0.99 0.33 1.98 0.66 3 1 C2.06409496 2.1055189 1.12620142 3.20935453 0.1875 4.3125 C-0.33457031 4.92738281 -0.85664063 5.54226562 -1.39453125 6.17578125 C-2.87172469 7.85424679 -4.40039131 9.43882034 -6 11 C-6.66 10.67 -7.32 10.34 -8 10 C-5.36 6.7 -2.72 3.4 0 0 Z " fill="#9E4E5B" transform="translate(190,117)"/>
<path d="M0 0 C2.64 0 5.28 0 8 0 C7.67 1.65 7.34 3.3 7 5 C4.0625 4.1875 4.0625 4.1875 1 3 C0.67 2.01 0.34 1.02 0 0 Z " fill="#F6ECED" transform="translate(361,137)"/>
<path d="M0 0 C0.33 1.65 0.66 3.3 1 5 C-1.31 5.33 -3.62 5.66 -6 6 C-5.6875 4.125 -5.6875 4.125 -5 2 C-2 0 -2 0 0 0 Z " fill="#F8EEEF" transform="translate(367,125)"/>
<path d="M0 0 C0 2.64 0 5.28 0 8 C-1.32 8 -2.64 8 -4 8 C-4 5.69 -4 3.38 -4 1 C-2 0 -2 0 0 0 Z " fill="#942938" transform="translate(270,93)"/>
<path d="M0 0 C2.31 0 4.62 0 7 0 C7 0.99 7 1.98 7 3 C4.69 3.33 2.38 3.66 0 4 C0 2.68 0 1.36 0 0 Z " fill="#FBF5F5" transform="translate(281,136)"/>
<path d="M0 0 C2.475 0.99 2.475 0.99 5 2 C5 3.32 5 4.64 5 6 C2.03 5.505 2.03 5.505 -1 5 C-0.67 3.35 -0.34 1.7 0 0 Z " fill="#F5EAEB" transform="translate(283,124)"/>
<path d="M0 0 C1.94723595 2.92085393 2.55175352 4.59332678 3 8 C2.67 8.33 2.34 8.66 2 9 C1.63239269 11.32817964 1.29758419 13.6618385 1 16 C0.67 16 0.34 16 0 16 C0 10.72 0 5.44 0 0 Z " fill="#ADADAD" transform="translate(298,370)"/>
<path d="M0 0 C2.31 0.33 4.62 0.66 7 1 C7 1.99 7 2.98 7 4 C4.69 4 2.38 4 0 4 C0 2.68 0 1.36 0 0 Z " fill="#FBF6F7" transform="translate(281,130)"/>
<path d="M0 0 C0.99 0.33 1.98 0.66 3 1 C3 2.98 3 4.96 3 7 C1.68 6.34 0.36 5.68 -1 5 C-0.67 3.35 -0.34 1.7 0 0 Z " fill="#D2ACB2" transform="translate(286,118)"/>
<path d="M0 0 C3.25543229 0.34879632 4.01873107 1.02133261 6.25 3.5625 C6.8275 4.366875 7.405 5.17125 8 6 C7.67 6.66 7.34 7.32 7 8 C5.8274869 7.04882866 4.66212985 6.08882991 3.5 5.125 C2.8503125 4.59132813 2.200625 4.05765625 1.53125 3.5078125 C1.0259375 3.01023437 0.520625 2.51265625 0 2 C0 1.34 0 0.68 0 0 Z " fill="#97414F" transform="translate(457,118)"/>
<path d="M0 0 C0.33 0.66 0.66 1.32 1 2 C0.0625 4.125 0.0625 4.125 -1 6 C-1.99 5.67 -2.98 5.34 -4 5 C-4.33 4.01 -4.66 3.02 -5 2 C-3.35 1.34 -1.7 0.68 0 0 Z " fill="#F4E7E9" transform="translate(287,140)"/>
<path d="M0 0 C1.32 0.99 2.64 1.98 4 3 C3.34 4.32 2.68 5.64 2 7 C1.34 7 0.68 7 0 7 C0 4.69 0 2.38 0 0 Z " fill="#FAF2F2" transform="translate(361,119)"/>
<path d="M0 0 C1.98 0.66 3.96 1.32 6 2 C5.34 3.32 4.68 4.64 4 6 C1.7522025 3.94766315 0.9977758 2.99332739 0 0 Z " fill="#EDD9DB" transform="translate(361,141)"/>
<path d="M0 0 C3 1 3 1 4.1875 3.0625 C4.455625 3.701875 4.72375 4.34125 5 5 C4.01 5.33 3.02 5.66 2 6 C1.01 4.68 0.02 3.36 -1 2 C-0.67 1.34 -0.34 0.68 0 0 Z " fill="#96303F" transform="translate(454,113)"/>
</svg>
