<?xml version="1.0" encoding="UTF-8"?>
<svg version="1.1" xmlns="http://www.w3.org/2000/svg" width="300" height="300">
<path d="M0 0 C0.66 0 1.32 0 2 0 C3.00197706 2.64510016 4.00166921 5.29102402 5 7.9375 C5.28617187 8.69224609 5.57234375 9.44699219 5.8671875 10.22460938 C8 15.88671875 8 15.88671875 8 17 C6.35 17 4.7 17 3 17 C3 20.3 3 23.6 3 27 C4.00804687 26.96777344 5.01609375 26.93554688 6.0546875 26.90234375 C26.43237237 27.40674189 42.66679745 40.26398255 56.34765625 54.13671875 C58.88265405 56.87332167 61.19823332 59.6913758 63.5 62.625 C75.38319837 77.41064328 91.11286162 85.16814963 109 90 C109 90.66 109 91.32 109 92 C108.36835938 92.35078613 107.73671875 92.70157227 107.0859375 93.06298828 C94.39282908 100.12055775 81.76035938 107.26144236 69.23193359 114.6081543 C61.55902292 119.10321255 53.85033396 123.5333725 46.125 127.9375 C37.12946054 133.06744113 28.13966975 138.20693841 19.16766357 143.37796021 C17.47367061 144.354156 15.77907806 145.3293111 14.08447266 146.30444336 C13.06530762 146.89233643 12.04614258 147.48022949 10.99609375 148.0859375 C9.65309204 148.8601001 9.65309204 148.8601001 8.28295898 149.64990234 C6.48811936 150.71133568 4.73499745 151.84333503 3 153 C-1.23614233 152.6876858 -4.24001256 151.57812161 -7.8515625 149.40234375 C-8.7703418 148.85658691 -9.68912109 148.31083008 -10.63574219 147.74853516 C-11.62219727 147.15089355 -12.60865234 146.55325195 -13.625 145.9375 C-15.78828425 144.65103416 -17.95237952 143.36593136 -20.1171875 142.08203125 C-21.24608398 141.40994629 -22.37498047 140.73786133 -23.53808594 140.04541016 C-29.23458355 136.6679456 -34.99491673 133.40121959 -40.75 130.125 C-41.92764696 129.45333847 -43.10521816 128.78154409 -44.28271484 128.10961914 C-47.85441302 126.07179732 -51.42711333 124.03573714 -55 122 C-63.19398622 117.3312815 -71.38488663 112.65734736 -79.56640625 107.96679688 C-81.89586127 106.63246172 -84.22632877 105.30010054 -86.55859375 103.97070312 C-89.96075975 102.03085524 -93.35565476 100.07850316 -96.75 98.125 C-97.78672852 97.5357373 -98.82345703 96.94647461 -99.89160156 96.33935547 C-100.8297168 95.79682129 -101.76783203 95.25428711 -102.734375 94.6953125 C-103.97525879 93.9839917 -103.97525879 93.9839917 -105.24121094 93.25830078 C-106.11181152 92.63544189 -106.11181152 92.63544189 -107 92 C-107 91.34 -107 90.68 -107 90 C-105.44152344 89.54560547 -105.44152344 89.54560547 -103.8515625 89.08203125 C-84.2210238 83.24452274 -69.45690214 73.47872999 -56.5 57.5 C-44.3897719 42.59042269 -27.75801768 29.34284795 -8 27 C-5.63698505 26.87701781 -3.36819714 26.89922565 -1 27 C-1 23.7 -1 20.4 -1 17 C-2.32 17 -3.64 17 -5 17 C-4.35083537 10.99522721 -2.14204997 5.599219 0 0 Z M22 50 C23.0209375 50.928125 23.0209375 50.928125 24.0625 51.875 C32.7712964 60.60867868 36.83256737 69.72718818 37 82 C36.2275312 91.45559025 32.68450934 99.83986031 25.75 106.375 C19.5253222 111.50363819 12.72944184 114.02652549 5 116 C5.80824219 116.61230469 6.61648437 117.22460938 7.44921875 117.85546875 C11.24665432 121.65290432 10.78013252 126.22361255 10.8125 131.3125 C10.83763672 132.24384766 10.86277344 133.17519531 10.88867188 134.13476562 C10.94735998 136.42360186 10.98377168 138.71053426 11 141 C14.69813356 139.6027689 18.09595998 137.93435305 21.55078125 136.015625 C22.62900146 135.41758057 23.70722168 134.81953613 24.81811523 134.20336914 C25.98305439 133.55250418 27.14784545 132.90137409 28.3125 132.25 C29.20861496 131.75063431 29.20861496 131.75063431 30.12283325 131.24118042 C39.42083014 126.0588194 48.64821006 120.76358506 57.82250977 115.36474609 C63.38210913 112.09613206 68.96491048 108.87538742 74.58203125 105.70703125 C75.8705301 104.97844488 77.15902297 104.24984793 78.44750977 103.52124023 C80.33156892 102.45626148 82.21673611 101.39358081 84.10617065 100.33816528 C85.85004132 99.36399655 87.58918072 98.38137311 89.328125 97.3984375 C90.3274707 96.83817871 91.32681641 96.27791992 92.35644531 95.70068359 C94.95051893 94.03183276 96.91700773 92.26285896 99 90 C97.8140625 89.731875 96.628125 89.46375 95.40625 89.1875 C79.50876581 85.41339596 66.37067895 79.86412971 54 69 C39.45165577 56.17130178 39.45165577 56.17130178 22 50 Z M-50.69921875 68.29296875 C-64.02360317 79.59438094 -79.53158402 87.59532881 -97 90 C-97 90.66 -97 91.32 -97 92 C-95.9790625 92.55945313 -94.958125 93.11890625 -93.90625 93.6953125 C-83.97765059 99.16145017 -74.16379344 104.80172394 -64.38964844 110.5390625 C-56.03337371 115.4300262 -47.59251112 120.15726328 -39.12866211 124.85888672 C-31.29587039 129.22857057 -23.58213007 133.77268265 -15.92675781 138.44580078 C-15.15686523 138.9148584 -14.38697266 139.38391602 -13.59375 139.8671875 C-12.92021484 140.28081543 -12.24667969 140.69444336 -11.55273438 141.12060547 C-10.15238774 142.08213424 -10.15238774 142.08213424 -9 142 C-8.99589111 141.39003174 -8.99178223 140.78006348 -8.98754883 140.15161133 C-8.95452425 137.37094208 -8.88387432 134.59243843 -8.8125 131.8125 C-8.80379883 130.37293945 -8.80379883 130.37293945 -8.79492188 128.90429688 C-8.54631696 120.92131696 -8.54631696 120.92131696 -5.44921875 117.82421875 C-4.64097656 117.22222656 -3.83273438 116.62023437 -3 116 C-3.76183594 115.78085938 -4.52367187 115.56171875 -5.30859375 115.3359375 C-17.32066633 111.64683656 -24.94481468 106.75602193 -31.25390625 95.828125 C-35.31370452 87.39732441 -35.49158111 77.45282932 -33.046875 68.515625 C-30.82826384 62.8708042 -28.22709538 58.33548244 -24 54 C-22.8553125 52.824375 -22.8553125 52.824375 -21.6875 51.625 C-21.130625 51.08875 -20.57375 50.5525 -20 50 C-30.47146734 50 -43.35280451 62.0522377 -50.69921875 68.29296875 Z M-2 121 C-2.99 121.66 -3.98 122.32 -5 123 C-4.67 123.99 -4.34 124.98 -4 126 C-3.01 125.01 -2.02 124.02 -1 123 C-1.33 122.34 -1.66 121.68 -2 121 Z M3 121 C3 121.99 3 122.98 3 124 C4.98 124.99 4.98 124.99 7 126 C5.6910428 122.87802522 5.6910428 122.87802522 3 121 Z M-2 127 C-2.99 127.99 -3.98 128.98 -5 130 C-4.67 130.66 -4.34 131.32 -4 132 C-3.01 131.01 -2.02 130.02 -1 129 C-1.33 128.34 -1.66 127.68 -2 127 Z M3 127 C3.26676204 128.98491642 3.26676204 128.98491642 4 131 C4.99 131.33 5.98 131.66 7 132 C5.6910428 128.87802522 5.6910428 128.87802522 3 127 Z M-2 133 C-2.99 133.99 -3.98 134.98 -5 136 C-4.67 136.66 -4.34 137.32 -4 138 C-3.01 137.34 -2.02 136.68 -1 136 C-1.33 135.01 -1.66 134.02 -2 133 Z M3 133 C3.26676204 134.98491642 3.26676204 134.98491642 4 137 C4.99 137.33 5.98 137.66 7 138 C5.6910428 134.87802522 5.6910428 134.87802522 3 133 Z M-2 141 C-2.66 142.32 -3.32 143.64 -4 145 C-3.01 145.33 -2.02 145.66 -1 146 C-1 144.35 -1 142.7 -1 141 C-1.33 141 -1.66 141 -2 141 Z M3 141 C3 142.65 3 144.3 3 146 C3.99 145.67 4.98 145.34 6 145 C5.34 143.68 4.68 142.36 4 141 C3.67 141 3.34 141 3 141 Z " fill="#898987" transform="translate(149,31)"/>
<path d="M0 0 C0.66 0 1.32 0 2 0 C3.00197706 2.64510016 4.00166921 5.29102402 5 7.9375 C5.28617187 8.69224609 5.57234375 9.44699219 5.8671875 10.22460938 C8 15.88671875 8 15.88671875 8 17 C6.35 17 4.7 17 3 17 C3 20.3 3 23.6 3 27 C4.00804687 26.96777344 5.01609375 26.93554688 6.0546875 26.90234375 C26.43237237 27.40674189 42.66679745 40.26398255 56.34765625 54.13671875 C58.88265405 56.87332167 61.19823332 59.6913758 63.5 62.625 C75.38319837 77.41064328 91.11286162 85.16814963 109 90 C109 90.66 109 91.32 109 92 C108.36835938 92.35078613 107.73671875 92.70157227 107.0859375 93.06298828 C94.39282908 100.12055775 81.76035938 107.26144236 69.23193359 114.6081543 C61.55902292 119.10321255 53.85033396 123.5333725 46.125 127.9375 C37.12946054 133.06744113 28.13966975 138.20693841 19.16766357 143.37796021 C17.47367061 144.354156 15.77907806 145.3293111 14.08447266 146.30444336 C13.06530762 146.89233643 12.04614258 147.48022949 10.99609375 148.0859375 C9.65309204 148.8601001 9.65309204 148.8601001 8.28295898 149.64990234 C6.48811936 150.71133568 4.73499745 151.84333503 3 153 C-1.23614233 152.6876858 -4.24001256 151.57812161 -7.8515625 149.40234375 C-8.7703418 148.85658691 -9.68912109 148.31083008 -10.63574219 147.74853516 C-11.62219727 147.15089355 -12.60865234 146.55325195 -13.625 145.9375 C-15.78828425 144.65103416 -17.95237952 143.36593136 -20.1171875 142.08203125 C-21.24608398 141.40994629 -22.37498047 140.73786133 -23.53808594 140.04541016 C-29.23458355 136.6679456 -34.99491673 133.40121959 -40.75 130.125 C-41.92764696 129.45333847 -43.10521816 128.78154409 -44.28271484 128.10961914 C-47.85441302 126.07179732 -51.42711333 124.03573714 -55 122 C-63.19398622 117.3312815 -71.38488663 112.65734736 -79.56640625 107.96679688 C-81.89586127 106.63246172 -84.22632877 105.30010054 -86.55859375 103.97070312 C-89.96075975 102.03085524 -93.35565476 100.07850316 -96.75 98.125 C-97.78672852 97.5357373 -98.82345703 96.94647461 -99.89160156 96.33935547 C-100.8297168 95.79682129 -101.76783203 95.25428711 -102.734375 94.6953125 C-103.97525879 93.9839917 -103.97525879 93.9839917 -105.24121094 93.25830078 C-106.11181152 92.63544189 -106.11181152 92.63544189 -107 92 C-107 91.34 -107 90.68 -107 90 C-105.44152344 89.54560547 -105.44152344 89.54560547 -103.8515625 89.08203125 C-84.2210238 83.24452274 -69.45690214 73.47872999 -56.5 57.5 C-44.3897719 42.59042269 -27.75801768 29.34284795 -8 27 C-5.63698505 26.87701781 -3.36819714 26.89922565 -1 27 C-1 23.7 -1 20.4 -1 17 C-2.32 17 -3.64 17 -5 17 C-4.35083537 10.99522721 -2.14204997 5.599219 0 0 Z M-50.69140625 68.2890625 C-64.02747497 79.58686744 -79.52309211 87.59415983 -97 90 C-97 90.66 -97 91.32 -97 92 C-95.9790625 92.55945313 -94.958125 93.11890625 -93.90625 93.6953125 C-83.97765059 99.16145017 -74.16379344 104.80172394 -64.38964844 110.5390625 C-57.06074806 114.82869956 -49.67290989 119.00052644 -42.25 123.125 C-32.88116223 128.33589718 -23.63671433 133.71863884 -14.47265625 139.28125 C-13.38815186 139.93287109 -13.38815186 139.93287109 -12.28173828 140.59765625 C-10.62131478 141.61814336 -8.98148351 142.67236754 -7.35498047 143.74609375 C-6.47342285 144.31457031 -5.59186523 144.88304687 -4.68359375 145.46875 C-3.8836499 145.99919922 -3.08370605 146.52964844 -2.25952148 147.07617188 C-0.03624086 148.27872319 -0.03624086 148.27872319 2.11743164 147.2434082 C3.04930298 146.62792114 3.04930298 146.62792114 4 146 C4.92554688 145.55011719 5.85109375 145.10023438 6.8046875 144.63671875 C10.33107513 142.83041506 13.72626121 140.84419518 17.125 138.8125 C24.85013735 134.23184804 32.63511851 129.76003444 40.4375 125.3125 C53.01385669 118.14040438 65.57126145 110.93667186 78.09863281 103.67919922 C80.85246006 102.08539042 83.60968989 100.49760289 86.3671875 98.91015625 C87.93254639 98.00304359 89.49766933 97.09552358 91.0625 96.1875 C91.76528076 95.7848291 92.46806152 95.3821582 93.19213867 94.96728516 C96.68514352 93.08306682 96.68514352 93.08306682 99 90 C97.8140625 89.731875 96.628125 89.46375 95.40625 89.1875 C79.50876581 85.41339596 66.37067895 79.86412971 54 69 C37.98101789 55.48810735 18.97631128 44.01697945 -2.66015625 44.66015625 C-21.00005184 46.52632106 -36.96900469 56.61805043 -50.69140625 68.2890625 Z " fill="#BA2502" transform="translate(149,31)"/>
<path d="M0 0 C6.64204298 3.87816654 11.76142701 9.45537431 14.1328125 16.84765625 C15.21757553 22.28133287 15.68608048 27.31462928 12.5625 32 C12.38074219 31.38511719 12.19898438 30.77023438 12.01171875 30.13671875 C11.76035156 29.32847656 11.50898438 28.52023438 11.25 27.6875 C11.00636719 26.88699219 10.76273438 26.08648437 10.51171875 25.26171875 C9.49894577 22.84856832 8.59214958 21.62873114 6.5625 20 C2.21882653 18.55210884 -1.89800536 18.48265791 -6.4375 19 C-9.71047475 20.89105208 -11.62435614 23.22111479 -13.9375 26.125 C-17.244698 29.92827769 -19.47375279 30.74930887 -24.375 31.375 C-29.35032764 30.76577621 -32.21374454 28.12714319 -35.8125 24.8125 C-38.14050787 20.7832556 -38.4165742 17.53865404 -37.4375 13 C-34.28558022 6.4582797 -28.66812476 2.42981058 -22.4375 -1 C-15.33626481 -3.3670784 -6.81548242 -3.12463656 0 0 Z " fill="#B82604" transform="translate(162.4375,87)"/>
<path d="M0 0 C0.33 0 0.66 0 1 0 C1.07476562 0.59167969 1.14953125 1.18335937 1.2265625 1.79296875 C1.94637959 6.11892833 2.52591293 9.12752313 6 12 C10.50263374 15.00175583 12.48690683 15.17022734 17.75 14.50390625 C23.09603224 13.30661778 25.77484192 9.08520024 29 5 C33.26202587 2.15864942 36.99988175 2.49518037 42 3 C46.59457298 4.79787638 48.77864953 7.6395713 51 12 C51.83787405 16.2401505 51.40097434 19.18134406 49.5 23.0625 C43.70870561 29.86727091 38.61047777 34.47439969 29.4140625 35.3359375 C19.44027551 35.43876005 13.68351743 34.48083587 6.25 27.875 C0.44909764 21.64931761 -1.49742446 14.60098005 -1.23828125 6.2265625 C-1.00754086 4.07046378 -0.58559378 2.08528517 0 0 Z " fill="#025192" transform="translate(124,102)"/>
<path d="M0 0 C2.31 0 4.62 0 7 0 C7 4.29 7 8.58 7 13 C8.65 13 10.3 13 12 13 C11.67 8.71 11.34 4.42 11 0 C13.31 0 15.62 0 18 0 C18 14.19 18 28.38 18 43 C16.02 43 14.04 43 12 43 C12 34.75 12 26.5 12 18 C10.35 18 8.7 18 7 18 C7 26.25 7 34.5 7 43 C5.02 43 3.04 43 1 43 C0.67 38.38 0.34 33.76 0 29 C-1.98 29.33 -3.96 29.66 -6 30 C-8.60293711 30.09021393 -11.20800504 30.13011186 -13.8125 30.125 C-14.49248047 30.12886719 -15.17246094 30.13273437 -15.87304688 30.13671875 C-20.87325175 30.12674825 -20.87325175 30.12674825 -22 29 C-22.08758003 27.00035018 -22.10696576 24.9976389 -22.09765625 22.99609375 C-22.09443359 21.78115234 -22.09121094 20.56621094 -22.08789062 19.31445312 C-22.07951172 18.03505859 -22.07113281 16.75566406 -22.0625 15.4375 C-22.05798828 14.15423828 -22.05347656 12.87097656 -22.04882812 11.54882812 C-22.03699555 8.3658658 -22.01905944 5.18292726 -22 2 C-16.39 2 -10.78 2 -5 2 C-5 3.32 -5 4.64 -5 6 C-7.97 6 -10.94 6 -14 6 C-14 12.27 -14 18.54 -14 25 C-9.05 24.67 -4.1 24.34 1 24 C0.505 12.12 0.505 12.12 0 0 Z " fill="#005194" transform="translate(29,193)"/>
<path d="M0 0 C2.64 0 5.28 0 8 0 C8 1.32 8 2.64 8 4 C11.3 4 14.6 4 18 4 C18 5.32 18 6.64 18 8 C17.01 8.33 16.02 8.66 15 9 C15 9.66 15 10.32 15 11 C17.97 11 20.94 11 24 11 C24 7.37 24 3.74 24 0 C26.31 0 28.62 0 31 0 C31 9.24 31 18.48 31 28 C28.69 28 26.38 28 24 28 C24 26.68 24 25.36 24 24 C17.75339985 24.3172529 13.36627078 24.66421005 8 28 C3.17276908 28.53635899 1.02109214 28.52017901 -3.3125 26.3125 C-6.11210203 23.90354011 -7.66967678 22.44318952 -9 19 C-8.97971589 15.49084924 -8.58690623 12.17381246 -7 9 C-7.99 8.67 -8.98 8.34 -10 8 C-10 6.68 -10 5.36 -10 4 C-6.7 4 -3.4 4 0 4 C0 2.68 0 1.36 0 0 Z M0.25 10 C-1.73645613 13.17832981 -1.55259954 16.35889894 -1 20 C0.00488226 22.17500647 0.00488226 22.17500647 2 23 C4.56189845 23.15474612 4.56189845 23.15474612 7 22 C9.09762034 19.89299553 9.09762034 19.89299553 10 17 C9.23827309 13.46835704 8.56128588 11.56128588 6 9 C2.24290136 8.66924071 2.24290136 8.66924071 0.25 10 Z M17 15 C16.67 16.65 16.34 18.3 16 20 C18.64 20 21.28 20 24 20 C24 18.35 24 16.7 24 15 C21.69 15 19.38 15 17 15 Z " fill="#005194" transform="translate(213,193)"/>
<path d="M0 0 C9.9 0 19.8 0 30 0 C29.67 4.95 29.34 9.9 29 15 C31.97 15.33 34.94 15.66 38 16 C38 17.65 38 19.3 38 21 C31.4 21 24.8 21 18 21 C18 23.31 18 25.62 18 28 C15.69 28 13.38 28 11 28 C11 25.69 11 23.38 11 21 C4.4 21 -2.2 21 -9 21 C-9 19.35 -9 17.7 -9 16 C1.23 16 11.46 16 22 16 C22 12.04 22 8.08 22 4 C14.74 4 7.48 4 0 4 C0 2.68 0 1.36 0 0 Z " fill="#005194" transform="translate(162,195)"/>
<path d="M0 0 C2.64 0 5.28 0 8 0 C8 13.53 8 27.06 8 41 C5.69 41 3.38 41 1 41 C1 39.02 1 37.04 1 35 C-0.5778125 35.24556641 -0.5778125 35.24556641 -2.1875 35.49609375 C-8.11280857 36.23675732 -14.03849689 36.10688691 -20 36.0625 C-21.15628906 36.05798828 -22.31257813 36.05347656 -23.50390625 36.04882812 C-26.33599225 36.03712529 -29.16796811 36.02072996 -32 36 C-32 34.35 -32 32.7 -32 31 C-28.04 31 -24.08 31 -20 31 C-20 29.35 -20 27.7 -20 26 C-17.69 26 -15.38 26 -13 26 C-13 27.65 -13 29.3 -13 31 C-8.38 30.67 -3.76 30.34 1 30 C0.67 20.1 0.34 10.2 0 0 Z " fill="#005194" transform="translate(285,193)"/>
<path d="M0 0 C2.31 0 4.62 0 7 0 C7 1.32 7 2.64 7 4 C10.63 4 14.26 4 18 4 C18 5.65 18 7.3 18 9 C16.68 9 15.36 9 14 9 C14.99 10.485 14.99 10.485 16 12 C16.60362041 16.18614674 16.41698873 19.93436214 14.875 23.875 C11.56215197 27.6295611 8.37084018 28.85570103 3.4375 29.375 C-1.4764003 28.83893815 -3.77959024 27.15444166 -7.3125 23.8125 C-9.67990919 19.86681801 -9.44179732 17.56523898 -9 13 C-8.34 12.01 -7.68 11.02 -7 10 C-7.99 9.67 -8.98 9.34 -10 9 C-10 7.35 -10 5.7 -10 4 C-6.7 4 -3.4 4 0 4 C0 2.68 0 1.36 0 0 Z M-0.875 12.125 C-2.24214803 15.61882275 -2.01147528 17.42093361 -1 21 C-0.01 22.485 -0.01 22.485 1 24 C3.45709375 24.58350505 3.45709375 24.58350505 6 24 C8.50907308 21.75048621 8.95656309 20.34749528 9.375 17 C8.95656309 13.65250472 8.50907308 12.24951379 6 10 C2.50026136 9.21255881 1.52033552 9.41028641 -0.875 12.125 Z " fill="#005194" transform="translate(64,193)"/>
<path d="M0 0 C0.61875 -0.01289063 1.2375 -0.02578125 1.875 -0.0390625 C5.37444417 1.0545138 7.91483294 2.64122523 10 5.625 C10.7824504 9.21322197 10.6585717 12.65791794 10.5 16.3125 C10.4896875 17.27478516 10.479375 18.23707031 10.46875 19.22851562 C10.30960607 26.31539393 10.30960607 26.31539393 8 28.625 C4.46428571 28.08928571 4.46428571 28.08928571 3 26.625 C2.34 28.605 1.68 30.585 1 32.625 C0.01 32.295 -0.98 31.965 -2 31.625 C-2.33 29.975 -2.66 28.325 -3 26.625 C-3.66 27.285 -4.32 27.945 -5 28.625 C-7.625 28.25 -7.625 28.25 -10 27.625 C-10.17479953 24.06312343 -10.28101143 20.50235227 -10.375 16.9375 C-10.42527344 15.93009766 -10.47554687 14.92269531 -10.52734375 13.88476562 C-10.67130894 6.61452334 -10.67130894 6.61452334 -8.77832031 3.82421875 C-6.15368372 1.5117636 -3.52938706 -0.0735289 0 0 Z M-3 5.625 C-3.99 6.285 -4.98 6.945 -6 7.625 C-5.67 8.615 -5.34 9.605 -5 10.625 C-4.01 9.635 -3.02 8.645 -2 7.625 C-2.33 6.965 -2.66 6.305 -3 5.625 Z M2 5.625 C2 6.615 2 7.605 2 8.625 C3.98 9.615 3.98 9.615 6 10.625 C4.6910428 7.50302522 4.6910428 7.50302522 2 5.625 Z M-3 11.625 C-3.99 12.615 -4.98 13.605 -6 14.625 C-5.67 15.285 -5.34 15.945 -5 16.625 C-4.01 15.635 -3.02 14.645 -2 13.625 C-2.33 12.965 -2.66 12.305 -3 11.625 Z M2 11.625 C2.26676204 13.60991642 2.26676204 13.60991642 3 15.625 C3.99 15.955 4.98 16.285 6 16.625 C4.6910428 13.50302522 4.6910428 13.50302522 2 11.625 Z M-3 17.625 C-3.99 18.615 -4.98 19.605 -6 20.625 C-5.67 21.285 -5.34 21.945 -5 22.625 C-4.01 21.965 -3.02 21.305 -2 20.625 C-2.33 19.635 -2.66 18.645 -3 17.625 Z M2 17.625 C2.26676204 19.60991642 2.26676204 19.60991642 3 21.625 C3.99 21.955 4.98 22.285 6 22.625 C4.6910428 19.50302522 4.6910428 19.50302522 2 17.625 Z " fill="#005093" transform="translate(150,146.375)"/>
<path d="M0 0 C2.64 0 5.28 0 8 0 C8 1.98 8 3.96 8 6 C12.62 6 17.24 6 22 6 C21.67 4.02 21.34 2.04 21 0 C23.64 0 26.28 0 29 0 C29 6.93 29 13.86 29 21 C19.76 21 10.52 21 1 21 C0.67 14.07 0.34 7.14 0 0 Z M8 11 C8 12.65 8 14.3 8 16 C12.62 16 17.24 16 22 16 C22 14.35 22 12.7 22 11 C17.38 11 12.76 11 8 11 Z " fill="#005194" transform="translate(215,224)"/>
<path d="M0 0 C2.64 0 5.28 0 8 0 C8 1.32 8 2.64 8 4 C10.97 4 13.94 4 17 4 C17 5.65 17 7.3 17 9 C16.01 9.495 16.01 9.495 15 10 C15.33 10.33 15.66 10.66 16 11 C16.71194379 18.11943794 16.71194379 18.11943794 13.625 21.9375 C9.6671915 25.04720668 7.25011132 25.33266219 2.328125 25.29296875 C-1.18934382 24.85033425 -3.34317023 23.25830531 -6 21 C-7.62651522 17.74696956 -7.11453156 14.60774398 -7 11 C-6.67 10.67 -6.34 10.34 -6 10 C-6.99 9.67 -7.98 9.34 -9 9 C-9 7.35 -9 5.7 -9 4 C-5.7 4 -2.4 4 1 4 C0.67 2.68 0.34 1.36 0 0 Z M0 12 C-0.58345476 14.95746492 -0.58345476 14.95746492 0 18 C2.39056942 19.9354148 2.39056942 19.9354148 5 21 C6.32 20.01 7.64 19.02 9 18 C8.81535634 13.65815798 8.81535634 13.65815798 7 10 C3.038832 9.60909667 3.038832 9.60909667 0 12 Z " fill="#005194" transform="translate(264,193)"/>
<path d="M0 0 C3.77726819 2.11913668 5.43847153 4.1283032 6.6875 8.375 C6.6875 12.77471707 6.19787293 14.73703383 3.4375 18.1875 C-0.97547573 21.6978216 -4.46522657 22.84027904 -10.18359375 22.69921875 C-13.93127109 22.12847156 -17.22156669 20.54445789 -20.3125 18.375 C-22.79571132 14.65018302 -22.90014464 12.28239311 -22.8359375 7.890625 C-22.05669178 4.14559334 -20.12747636 2.64687978 -17.13671875 0.43359375 C-11.62708919 -2.7636431 -5.66401861 -2.51850274 0 0 Z M-13.6875 5 C-15.79956506 8.08686432 -15.92445145 9.7032913 -15.3125 13.375 C-13.8125 15.875 -13.8125 15.875 -11.3125 17.375 C-7.6407913 17.98695145 -6.02436432 17.86206506 -2.9375 15.75 C-0.82543494 12.66313568 -0.70054855 11.0467087 -1.3125 7.375 C-2.8125 4.875 -2.8125 4.875 -5.3125 3.375 C-8.9842087 2.76304855 -10.60063568 2.88793494 -13.6875 5 Z " fill="#005194" transform="translate(137.3125,223.625)"/>
<path d="M0 0 C3.85544798 1.99657127 5.59805092 3.39707638 8 7 C8.69920885 11.79689791 8.71482085 15.77459282 6.25 20 C1.83718895 23.92249871 -1.74238324 24.43506492 -7.5234375 24.32421875 C-11.14175926 23.85052678 -13.28772094 22.37324418 -16 20 C-18.69542917 15.95685624 -18.66452365 12.74891289 -18 8 C-13.92960329 0.00457789 -8.4632363 -1.10796311 0 0 Z M-8.625 6.125 C-11.19851667 8.78530346 -11.19851667 8.78530346 -11.625 12 C-10.80695681 15.92660732 -9.00495843 17.44578533 -6 20 C-2.34683329 18.75023244 -1.21934164 18.32901247 1 15 C1.5838196 12.0850745 1.5838196 12.0850745 1 9 C-1.2504197 6.08209475 -1.2504197 6.08209475 -4 4 C-6.30380405 3.79026726 -6.30380405 3.79026726 -8.625 6.125 Z " fill="#005194" transform="translate(123,195)"/>
<path d="M0 0 C3.51636341 1.19904265 6.1417505 2.88054413 8.4375 5.875 C9.22515163 8.85057282 9.43074147 10.92327522 9 14 C6.22280152 18.12612346 3.91621279 20.88267891 -1 22 C-7.73343172 22.68708487 -12.23655111 21.72525609 -17.8125 17.6875 C-19.59118332 15.15989738 -19.81633353 13.06110789 -20 10 C-18.92926805 5.50292581 -16.72582602 3.60807821 -13 1 C-9.04662401 -0.97668799 -4.30803844 -0.43317742 0 0 Z M-11 7 C-12.31968178 8.10528442 -12.31968178 8.10528442 -12.25 10.875 C-12.22895437 13.90345806 -12.22895437 13.90345806 -10.9375 15.875 C-7.84902396 17.66830867 -5.48856031 17.42841969 -2 17 C0.62716577 15.54002013 0.62716577 15.54002013 2 13 C2.24677006 9.89706707 2.24677006 9.89706707 1 7 C-4.00836922 3.14740829 -5.8957706 3.72805808 -11 7 Z " fill="#005194" transform="translate(182,224)"/>
<path d="M0 0 C2.64 0 5.28 0 8 0 C8 3.63 8 7.26 8 11 C10.31 11 12.62 11 15 11 C15 12.65 15 14.3 15 16 C12.69 16 10.38 16 8 16 C8.01160156 17.13179687 8.02320312 18.26359375 8.03515625 19.4296875 C8.04453454 20.91145669 8.0536347 22.39322765 8.0625 23.875 C8.07087891 24.62136719 8.07925781 25.36773437 8.08789062 26.13671875 C8.11328125 31.7734375 8.11328125 31.7734375 7 34 C5.02 34 3.04 34 1 34 C0.67 22.78 0.34 11.56 0 0 Z " fill="#005194" transform="translate(86,193)"/>
<path d="M0 0 C2.64 0 5.28 0 8 0 C8 1.65 8 3.3 8 5 C9.98 5 11.96 5 14 5 C14 6.65 14 8.3 14 10 C12.02 10 10.04 10 8 10 C8 11.65 8 13.3 8 15 C9.98 15 11.96 15 14 15 C14 16.32 14 17.64 14 19 C12.02 19 10.04 19 8 19 C7.67 21.64 7.34 24.28 7 27 C5.02 27 3.04 27 1 27 C0.67 18.09 0.34 9.18 0 0 Z " fill="#005194" transform="translate(136,193)"/>
<path d="M0 0 C2.31 0 4.62 0 7 0 C7 4.29 7 8.58 7 13 C14.26 13 21.52 13 29 13 C29 14.65 29 16.3 29 18 C19.43 18 9.86 18 0 18 C0 12.06 0 6.12 0 0 Z " fill="#005194" transform="translate(65,227)"/>
<path d="M0 0 C2.97 0 5.94 0 9 0 C9 0.99 9 1.98 9 3 C7.02 3 5.04 3 3 3 C3 3.99 3 4.98 3 6 C4.98 6 6.96 6 9 6 C9 6.99 9 7.98 9 9 C7.02 9 5.04 9 3 9 C3 9.99 3 10.98 3 12 C4.98 12 6.96 12 9 12 C10.65 8.04 12.3 4.08 14 0 C15.65 0.33 17.3 0.66 19 1 C20.36328125 3.3984375 20.36328125 3.3984375 21.3125 6.375 C21.80169922 7.84066406 21.80169922 7.84066406 22.30078125 9.3359375 C23 12 23 12 23 15 C21.68 14.67 20.36 14.34 19 14 C19 13.34 19 12.68 19 12 C17.02 12 15.04 12 13 12 C13 12.99 13 13.98 13 15 C8.71 15 4.42 15 0 15 C0 10.05 0 5.1 0 0 Z M16 5 C15.67 6.32 15.34 7.64 15 9 C15.99 8.67 16.98 8.34 18 8 C17.34 7.01 16.68 6.02 16 5 Z " fill="#005194" transform="translate(46,254)"/>
<path d="M0 0 C0.66 0 1.32 0 2 0 C3.00197706 2.64510016 4.00166921 5.29102402 5 7.9375 C5.28617188 8.69224609 5.57234375 9.44699219 5.8671875 10.22460938 C8 15.88671875 8 15.88671875 8 17 C6.35 17 4.7 17 3 17 C3 20.3 3 23.6 3 27 C1.68 27 0.36 27 -1 27 C-1 23.7 -1 20.4 -1 17 C-2.32 17 -3.64 17 -5 17 C-4.35083537 10.99522721 -2.14204997 5.599219 0 0 Z " fill="#005194" transform="translate(149,31)"/>
<path d="M0 0 C1.32 0 2.64 0 4 0 C5.32 2.31 6.64 4.62 8 7 C8.33 4.69 8.66 2.38 9 0 C9.99 0 10.98 0 12 0 C12 4.95 12 9.9 12 15 C10.35 14.67 8.7 14.34 7 14 C5.1875 10.9375 5.1875 10.9375 4 8 C3.67 10.31 3.34 12.62 3 15 C2.01 15 1.02 15 0 15 C0 10.05 0 5.1 0 0 Z " fill="#005194" transform="translate(281,254)"/>
<path d="M0 0 C6.8359375 -0.1953125 6.8359375 -0.1953125 9 0 C11 2 11 2 11.1953125 5.0390625 C11.17210937 6.22242188 11.14890625 7.40578125 11.125 8.625 C11.10695313 9.81351562 11.08890625 11.00203125 11.0703125 12.2265625 C11.04710937 13.14179688 11.02390625 14.05703125 11 15 C9.68 14.67 8.36 14.34 7 14 C7 12.35 7 10.7 7 9 C5.68 9 4.36 9 3 9 C3 10.98 3 12.96 3 15 C2.01 15 1.02 15 0 15 C0 10.05 0 5.1 0 0 Z M3 3 C3 3.99 3 4.98 3 6 C4.32 6 5.64 6 7 6 C7 5.01 7 4.02 7 3 C5.68 3 4.36 3 3 3 Z " fill="#005194" transform="translate(33,254)"/>
<path d="M0 0 C1.9453125 -0.29296875 1.9453125 -0.29296875 4.125 -0.1875 C5.40375 -0.125625 6.6825 -0.06375 8 0 C9.99801607 3.28409538 10.15166527 5.40147728 9.6875 9.1875 C9.58824219 10.06792969 9.48898438 10.94835937 9.38671875 11.85546875 C9 14 9 14 8 15 C2.1589404 15.37086093 2.1589404 15.37086093 0 15 C-2.08133467 11.877998 -2.2737822 11.06733011 -2.25 7.5 C-2.25773438 6.33984375 -2.25773438 6.33984375 -2.265625 5.15625 C-2 3 -2 3 0 0 Z M3 2 C0.43312633 5.8503105 1.16711276 7.58569763 2 12 C3.32 12 4.64 12 6 12 C6 9.03 6 6.06 6 3 C5.01 2.67 4.02 2.34 3 2 Z " fill="#005194" transform="translate(207,254)"/>
<path d="M0 0 C6.93359375 -0.09765625 6.93359375 -0.09765625 9 0 C10.94090826 1.94090826 10.39919435 5.47293902 10.5625 8.0625 C10.64628906 9.35285156 10.73007813 10.64320313 10.81640625 11.97265625 C10.87699219 12.97167969 10.93757813 13.97070312 11 15 C9.68 15 8.36 15 7 15 C7 13.02 7 11.04 7 9 C5.68 9 4.36 9 3 9 C3 10.98 3 12.96 3 15 C2.01 15 1.02 15 0 15 C0 10.05 0 5.1 0 0 Z M3 3 C3 3.99 3 4.98 3 6 C4.32 6 5.64 6 7 6 C7 5.01 7 4.02 7 3 C5.68 3 4.36 3 3 3 Z " fill="#005194" transform="translate(89,254)"/>
<path d="M0 0 C6.0546875 -0.1953125 6.0546875 -0.1953125 8 0 C10 2 10 2 10.1953125 5.0390625 C10.17210937 6.22242188 10.14890625 7.40578125 10.125 8.625 C10.10695312 9.81351562 10.08890625 11.00203125 10.0703125 12.2265625 C10.04710937 13.14179688 10.02390625 14.05703125 10 15 C9.01 15 8.02 15 7 15 C6.67 13.02 6.34 11.04 6 9 C5.01 9 4.02 9 3 9 C3 10.98 3 12.96 3 15 C2.01 15 1.02 15 0 15 C0 10.05 0 5.1 0 0 Z M3 3 C3 3.99 3 4.98 3 6 C4.32 5.67 5.64 5.34 7 5 C7 4.34 7 3.68 7 3 C5.68 3 4.36 3 3 3 Z " fill="#005194" transform="translate(139,254)"/>
<path d="M0 0 C1.32 0 2.64 0 4 0 C4.83739781 2.1234016 5.66980283 4.2487728 6.5 6.375 C6.9640625 7.55835938 7.428125 8.74171875 7.90625 9.9609375 C9 13 9 13 9 15 C7.68 15 6.36 15 5 15 C5 14.01 5 13.02 5 12 C3.02 12 1.04 12 -1 12 C-1.33 12.99 -1.66 13.98 -2 15 C-2.99 15 -3.98 15 -5 15 C-4.37321829 11.33827525 -3.35548154 8.1181005 -1.9375 4.6875 C-1.39416016 3.36298828 -1.39416016 3.36298828 -0.83984375 2.01171875 C-0.56269531 1.34785156 -0.28554687 0.68398437 0 0 Z M1 5 C0.67 6.32 0.34 7.64 0 9 C0.99 9 1.98 9 3 9 C2.67 7.68 2.34 6.36 2 5 C1.67 5 1.34 5 1 5 Z " fill="#005194" transform="translate(79,254)"/>
<path d="M0 0 C1.32 0 2.64 0 4 0 C4.83986084 1.93467942 5.67168027 3.87285129 6.5 5.8125 C6.9640625 6.89144531 7.428125 7.97039062 7.90625 9.08203125 C9 12 9 12 9 15 C7.68 14.67 6.36 14.34 5 14 C5 13.34 5 12.68 5 12 C3.02 12 1.04 12 -1 12 C-1.33 12.99 -1.66 13.98 -2 15 C-2.99 15 -3.98 15 -5 15 C-1.92482916 4.44191344 -1.92482916 4.44191344 0 0 Z M2 5 C1.67 6.32 1.34 7.64 1 9 C1.99 8.67 2.98 8.34 4 8 C3.34 7.01 2.68 6.02 2 5 Z " fill="#005194" transform="translate(241,254)"/>
<path d="M0 0 C1.828125 0.05859375 1.828125 0.05859375 4 1 C5.12629629 3.39782551 5.97100667 5.55649314 6.75 8.0625 C6.97042969 8.72572266 7.19085938 9.38894531 7.41796875 10.07226562 C7.95997407 11.71006432 8.48192502 13.35447496 9 15 C7.68 15 6.36 15 5 15 C4.67 14.34 4.34 13.68 4 13 C2.35 13 0.7 13 -1 13 C-1.33 13.66 -1.66 14.32 -2 15 C-2.99 15 -3.98 15 -5 15 C-4.43174347 9.45949887 -2.37113483 4.96284034 0 0 Z M1 4 C0.67 5.65 0.34 7.3 0 9 C0.99 9 1.98 9 3 9 C2.67 7.35 2.34 5.7 2 4 C1.67 4 1.34 4 1 4 Z " fill="#005194" transform="translate(171,254)"/>
<path d="M0 0 C0.94552734 0.16242188 0.94552734 0.16242188 1.91015625 0.328125 C3.99149092 3.450127 4.18393845 4.26079489 4.16015625 7.828125 C4.1653125 8.6015625 4.17046875 9.375 4.17578125 10.171875 C3.91015625 12.328125 3.91015625 12.328125 1.91015625 15.328125 C-0.83259455 15.79927238 -3.28543272 15.50618284 -6.08984375 15.328125 C-7.08984375 14.328125 -7.08984375 14.328125 -7.22265625 11.421875 C-7.22007813 10.2359375 -7.2175 9.05 -7.21484375 7.828125 C-7.21742187 6.6421875 -7.22 5.45625 -7.22265625 4.234375 C-6.98639251 -0.93563164 -4.66083443 0.16917729 0 0 Z M-3.08984375 2.328125 C-4.32251723 3.33648562 -4.32251723 3.33648562 -4.1875 5.39453125 C-4.17589844 6.21824219 -4.16429687 7.04195313 -4.15234375 7.890625 C-4.14332031 8.71691406 -4.13429688 9.54320312 -4.125 10.39453125 C-4.11339844 11.03261719 -4.10179687 11.67070312 -4.08984375 12.328125 C-2.76984375 12.328125 -1.44984375 12.328125 -0.08984375 12.328125 C1.32593102 11.14388174 1.32593102 11.14388174 0.97265625 7.765625 C0.95203125 6.63125 0.93140625 5.496875 0.91015625 4.328125 C-0.40984375 3.668125 -1.72984375 3.008125 -3.08984375 2.328125 Z " fill="#005194" transform="translate(27.08984375,253.671875)"/>
<path d="M0 0 C3.5625 0.1875 3.5625 0.1875 5.5625 2.1875 C5.5625 3.1775 5.5625 4.1675 5.5625 5.1875 C3.39375748 4.68146008 1.56282373 4.18766187 -0.4375 3.1875 C-0.4375 3.8475 -0.4375 4.5075 -0.4375 5.1875 C0.366875 5.620625 1.17125 6.05375 2 6.5 C4.5625 8.1875 4.5625 8.1875 5.5 10.75 C5.520625 11.554375 5.54125 12.35875 5.5625 13.1875 C3.5625 15.1875 3.5625 15.1875 0.0625 15.4375 C-3.4375 15.1875 -3.4375 15.1875 -5.4375 13.1875 C-5.4375 12.1975 -5.4375 11.2075 -5.4375 10.1875 C-2.77083333 10.85416667 -0.10416667 11.52083333 2.5625 12.1875 C2.5625 11.5275 2.5625 10.8675 2.5625 10.1875 C1.593125 9.878125 0.62375 9.56875 -0.375 9.25 C-3.4375 8.1875 -3.4375 8.1875 -4.4375 7.1875 C-4.5625 4.1875 -4.5625 4.1875 -4.4375 1.1875 C-3.4375 0.1875 -3.4375 0.1875 0 0 Z " fill="#005194" transform="translate(185.4375,253.8125)"/>
<path d="M0 0 C3.3 0 6.6 0 10 0 C10 0.99 10 1.98 10 3 C7.69 3 5.38 3 3 3 C3 3.99 3 4.98 3 6 C4.98 6 6.96 6 9 6 C9 6.99 9 7.98 9 9 C7.02 9 5.04 9 3 9 C3 9.99 3 10.98 3 12 C5.31 12 7.62 12 10 12 C10 12.99 10 13.98 10 15 C6.7 15 3.4 15 0 15 C0 10.05 0 5.1 0 0 Z " fill="#005194" transform="translate(127,254)"/>
<path d="M0 0 C0.99 0 1.98 0 3 0 C3 1.98 3 3.96 3 6 C4.65 6 6.3 6 8 6 C8 4.02 8 2.04 8 0 C8.99 0 9.98 0 11 0 C11 4.95 11 9.9 11 15 C10.01 15 9.02 15 8 15 C8 13.02 8 11.04 8 9 C6.35 9 4.7 9 3 9 C3 10.98 3 12.96 3 15 C2.01 15 1.02 15 0 15 C0 10.05 0 5.1 0 0 Z " fill="#005194" transform="translate(114,254)"/>
<path d="M0 0 C3.5 0.25 3.5 0.25 5.5 2.25 C5.765625 4.78125 5.765625 4.78125 5.75 7.75 C5.75515625 8.7296875 5.7603125 9.709375 5.765625 10.71875 C5.5 13.25 5.5 13.25 3.5 15.25 C0 15.5 0 15.5 -3.5 15.25 C-5.5 13.25 -5.5 13.25 -5.765625 10.71875 C-5.76046875 9.7390625 -5.7553125 8.759375 -5.75 7.75 C-5.75515625 6.7703125 -5.7603125 5.790625 -5.765625 4.78125 C-5.3283339 0.61412306 -4.06362854 0.29025918 0 0 Z M-0.5 2.25 C-1.49 2.745 -1.49 2.745 -2.5 3.25 C-2.5 6.22 -2.5 9.19 -2.5 12.25 C-1.18 12.58 0.14 12.91 1.5 13.25 C2.73267348 12.24163938 2.73267348 12.24163938 2.59765625 10.18359375 C2.58605469 9.35988281 2.57445312 8.53617187 2.5625 7.6875 C2.55347656 6.86121094 2.54445313 6.03492188 2.53515625 5.18359375 C2.52355469 4.54550781 2.51195312 3.90742188 2.5 3.25 C1.51 2.92 0.52 2.59 -0.5 2.25 Z " fill="#005194" transform="translate(272.5,253.75)"/>
<path d="M0 0 C1.134375 0.020625 2.26875 0.04125 3.4375 0.0625 C3.7675 1.7125 4.0975 3.3625 4.4375 5.0625 C3.4475 5.0625 2.4575 5.0625 1.4375 5.0625 C1.1075 4.4025 0.7775 3.7425 0.4375 3.0625 C-0.5525 3.5575 -0.5525 3.5575 -1.5625 4.0625 C-0.5725 4.59875 0.4175 5.135 1.4375 5.6875 C4.4375 8.0625 4.4375 8.0625 4.875 11.25 C4.4375 14.0625 4.4375 14.0625 3.4375 15.0625 C0.76691149 15.20365161 -1.88682238 15.10497107 -4.5625 15.0625 C-4.8925 13.4125 -5.2225 11.7625 -5.5625 10.0625 C-4.5725 10.0625 -3.5825 10.0625 -2.5625 10.0625 C-2.2325 10.7225 -1.9025 11.3825 -1.5625 12.0625 C-0.9025 12.0625 -0.2425 12.0625 0.4375 12.0625 C0.4375 11.4025 0.4375 10.7425 0.4375 10.0625 C-1.52397874 8.67311923 -3.52416576 7.3364589 -5.5625 6.0625 C-4.48849278 0.07874549 -4.48849278 0.07874549 0 0 Z " fill="#005194" transform="translate(198.5625,253.9375)"/>
<path d="M0 0 C0.99 0 1.98 0 3 0 C3.33 1.32 3.66 2.64 4 4 C4.598125 3.34 5.19625 2.68 5.8125 2 C8 0 8 0 11 0 C9.66666667 2.66666667 8.33333333 5.33333333 7 8 C8.65 9.98 10.3 11.96 12 14 C10.68 14.33 9.36 14.66 8 15 C6.68 13.35 5.36 11.7 4 10 C3.67 11.65 3.34 13.3 3 15 C2.01 15 1.02 15 0 15 C0 10.05 0 5.1 0 0 Z " fill="#005194" transform="translate(7,254)"/>
<path d="M0 0 C3.5 -0.3125 3.5 -0.3125 7 0 C9 2 9 2 9 5 C7.68 5 6.36 5 5 5 C4.34 4.34 3.68 3.68 3 3 C1.58422523 4.18424326 1.58422523 4.18424326 1.9375 7.5625 C1.958125 8.696875 1.97875 9.83125 2 11 C4.62113708 11 6.50935112 10.68707555 9 10 C8.125 13.875 8.125 13.875 7 15 C3.5625 15.25 3.5625 15.25 0 15 C-2.08133467 11.877998 -2.2737822 11.06733011 -2.25 7.5 C-2.25773437 6.33984375 -2.25773437 6.33984375 -2.265625 5.15625 C-2 3 -2 3 0 0 Z " fill="#005194" transform="translate(103,254)"/>
<path d="M0 0 C1.670625 0.061875 1.670625 0.061875 3.375 0.125 C3.705 1.775 4.035 3.425 4.375 5.125 C3.385 5.125 2.395 5.125 1.375 5.125 C1.045 4.465 0.715 3.805 0.375 3.125 C-0.285 3.125 -0.945 3.125 -1.625 3.125 C-1.625 6.095 -1.625 9.065 -1.625 12.125 C-0.965 12.125 -0.305 12.125 0.375 12.125 C0.705 11.465 1.035 10.805 1.375 10.125 C2.695 10.125 4.015 10.125 5.375 10.125 C4.715 11.775 4.055 13.425 3.375 15.125 C0 15.25 0 15.25 -3.625 15.125 C-5.625 13.125 -5.625 13.125 -5.890625 10.59375 C-5.88546875 9.6140625 -5.8803125 8.634375 -5.875 7.625 C-5.88015625 6.6453125 -5.8853125 5.665625 -5.890625 4.65625 C-5.44361757 0.3965321 -4.1561511 0.14331556 0 0 Z " fill="#005194" transform="translate(224.625,253.875)"/>
<path d="M0 0 C1.32 0 2.64 0 4 0 C4.66 1.32 5.32 2.64 6 4 C6.6496875 3.01 6.6496875 3.01 7.3125 2 C7.869375 1.34 8.42625 0.68 9 0 C9.99 0 10.98 0 12 0 C11.566875 1.2065625 11.566875 1.2065625 11.125 2.4375 C9.81642821 6.58131067 8.88782235 10.74978663 8 15 C7.01 15 6.02 15 5 15 C4.731875 13.824375 4.46375 12.64875 4.1875 11.4375 C3.18552881 7.39357312 1.7340076 3.7832893 0 0 Z " fill="#005194" transform="translate(149,254)"/>
<path d="M0 0 C3.96 0 7.92 0 12 0 C12 0.99 12 1.98 12 3 C10.35 3 8.7 3 7 3 C7 6.96 7 10.92 7 15 C6.01 15 5.02 15 4 15 C4 11.04 4 7.08 4 3 C2.68 3 1.36 3 0 3 C0 2.01 0 1.02 0 0 Z " fill="#005194" transform="translate(248,254)"/>
<path d="M0 0 C0.99 0 1.98 0 3 0 C3 4.95 3 9.9 3 15 C2.01 15 1.02 15 0 15 C0 10.05 0 5.1 0 0 Z " fill="#005194" transform="translate(261,254)"/>
<path d="M0 0 C0.99 0 1.98 0 3 0 C3 4.95 3 9.9 3 15 C2.01 15 1.02 15 0 15 C0 10.05 0 5.1 0 0 Z " fill="#005194" transform="translate(232,254)"/>
</svg>
