<svg xmlns="http://www.w3.org/2000/svg" xmlns:xlink="http://www.w3.org/1999/xlink" version="1.1" id="Layer_1" x="0px" y="0px" viewBox="0 0 206 206" style="enable-background:new 0 0 156 140;" xml:space="preserve" width="156"  height="140" >
<style type="text/css">
	.st0{fill:#1C355E;}
	.st1{fill:#AA182C;}
</style>
<g>
	<polygon class="st0" points="132.7,51.9 122.3,51.9 119.1,41.9 115.8,51.9 105.4,51.9 113.8,58 110.6,67.9 119.1,61.8 127.5,67.9    124.3,58  "/>
	<path class="st0" d="M49.4,2C49.4,2,49.4,2,49.4,2c-0.1,0-0.1,0-0.1,0.1c0,0.1,0,0.1,0.1,0.1c20.5,9.6,36.1,19.4,46.3,29.1   c2.8,2.7,5.2,5.3,7.2,8h14.6C105,26.3,82.2,13.8,49.4,2z"/>
	<path class="st1" d="M109.9,71.3c-0.8,2.9-2.1,5.8-3.7,8.8H124c1.7-2.9,3-5.8,3.8-8.8H109.9z"/>
	<path class="st1" d="M92.7,97.3h15.8c3.5-2.9,6.5-5.8,9.1-8.8h-17.1C98.3,91.5,95.7,94.4,92.7,97.3z"/>
	<path class="st1" d="M37.1,135.8c-0.1,0-0.1,0.1,0,0.1c0,0,0.1,0.1,0.1,0.1c0,0,0,0,0,0c25-10,45.1-20.1,60-30.1H83.2   C71.5,115.5,56.2,125.4,37.1,135.8z"/>
	<path class="st0" d="M29.6,41.8H36l-1.5,15.6c-0.3,3.1,1.1,4.9,4.1,4.9c3,0,4.8-1.8,5.1-4.9l1.5-15.6h6.4L50,57.4   c-0.7,7.2-6.1,10.8-12.1,10.8c-6.1,0-10.5-3.6-9.8-10.8L29.6,41.8z"/>
	<path class="st0" d="M61.4,68.2c-5.6,0-9.7-2.8-9.4-8.1h6.8c0,2,1.2,3,3,3c1.9,0,3.1-0.9,3.3-2.5c0.5-4.8-12.9-2.2-11.9-11.5   c0.5-5,4.8-7.7,10.3-7.7c5.7,0,9.3,2.8,9,7.8h-6.9c0-1.7-1-2.7-2.8-2.7c-1.5,0-2.8,0.7-2.9,2.4c-0.4,4.5,12.7,2.5,11.8,11.2   C71.3,64.5,67.5,68.2,61.4,68.2z"/>
	<path class="st0" d="M89.3,63.3h-9.8l-2,4.6h-6.7l12-26.1h7.4l6.9,26.1h-6.7L89.3,63.3z M85.8,48.8l-4.1,9.6h6.4L85.8,48.8z"/>
	<path class="st1" d="M32.6,71.3h-2.4L25.8,80h2.4l0.8-1.6h3.4l0.5,1.6h2.4L32.6,71.3z M31.9,76.7h-2.1l1.3-2.7L31.9,76.7z"/>
	<path class="st1" d="M43.2,76.6c1.5-0.5,2.1-1.6,2.2-2.5c0.1-1.3-0.7-2.8-3.3-2.8h-3.7L37.6,80h2.3l0.3-3.2h0.6l1.7,3.2h2.6   L43.2,76.6z M40.5,73.1h1.4c0.9,0,1.3,0.3,1.2,1c-0.1,0.7-0.5,1-1.4,1h-1.4L40.5,73.1z"/>
	<path class="st1" d="M53.9,77.1c-0.5,0.7-1.2,1.1-2.2,1.1c-1.5,0-2.5-1-2.3-2.6c0.1-1.6,1.3-2.6,2.8-2.6c1,0,1.6,0.4,1.9,1.1l0,0.1   h2.6L56.8,74c-0.5-1.7-2.1-2.8-4.3-2.8c-2.8,0-5.1,1.9-5.3,4.5c-0.2,2.6,1.6,4.5,4.5,4.5c2.2,0,4-1.1,4.8-2.8l0.1-0.3H54L53.9,77.1   z"/>
	<polygon class="st1" points="65.4,71.3 65,74.7 61.5,74.7 61.8,71.3 59.5,71.3 58.7,80 61,80 61.3,76.5 64.9,76.5 64.5,80 66.8,80    67.6,71.3  "/>
	<polygon class="st1" points="76.5,73.1 76.7,71.3 70.9,71.3 70,80 75.8,80 76,78.3 72.5,78.3 72.6,76.5 75.8,76.5 75.9,74.7    72.8,74.7 73,73.1  "/>
	<path class="st1" d="M84.3,76.6c1.5-0.5,2.1-1.6,2.2-2.5c0.1-1.3-0.7-2.8-3.3-2.8h-3.7L78.7,80H81l0.3-3.2h0.6l1.7,3.2h2.6   L84.3,76.6z M81.7,73.1H83c0.9,0,1.3,0.3,1.2,1c-0.1,0.7-0.5,1-1.4,1h-1.4L81.7,73.1z"/>
	<polygon class="st1" points="94.5,71.3 92.3,74.9 90.8,71.3 88.2,71.3 91,77 90.7,80 93,80 93.2,77 97.1,71.3  "/>
	<g>
		<path class="st1" d="M46.5,133.8v0.3h-0.8v2h-0.3v-2h-0.8v-0.3H46.5z"/>
		<path class="st1" d="M46.8,133.8h0.4l0.6,1.9l0.6-1.9H49v2.2h-0.3v-1.3c0,0,0-0.1,0-0.2c0-0.1,0-0.2,0-0.3L48,136h-0.3l-0.6-1.9    v0.1c0,0.1,0,0.1,0,0.3c0,0.1,0,0.2,0,0.2v1.3h-0.3V133.8z"/>
	</g>
</g>
</svg>